<svg width="48" height="48" viewBox="0 0 48 48" fill="none" xmlns="http://www.w3.org/2000/svg">
<path d="M10.3929 26.4C9.73097 26.4 9.16667 26.1643 8.7 25.6929C8.23333 25.2215 8 24.6548 8 23.9929C8 23.3309 8.2357 22.7666 8.7071 22.3C9.17847 21.8333 9.74513 21.6 10.4071 21.6C11.069 21.6 11.6333 21.8357 12.1 22.3071C12.5667 22.7784 12.8 23.3451 12.8 24.0071C12.8 24.669 12.5643 25.2333 12.0929 25.7C11.6215 26.1666 11.0549 26.4 10.3929 26.4ZM23.9929 26.4C23.331 26.4 22.7667 26.1643 22.3 25.6929C21.8333 25.2215 21.6 24.6548 21.6 23.9929C21.6 23.3309 21.8357 22.7666 22.3071 22.3C22.7785 21.8333 23.3451 21.6 24.0071 21.6C24.669 21.6 25.2333 21.8357 25.7 22.3071C26.1667 22.7784 26.4 23.3451 26.4 24.0071C26.4 24.669 26.1643 25.2333 25.6929 25.7C25.2215 26.1666 24.6549 26.4 23.9929 26.4ZM37.5929 26.4C36.931 26.4 36.3667 26.1643 35.9 25.6929C35.4333 25.2215 35.2 24.6548 35.2 23.9929C35.2 23.3309 35.4357 22.7666 35.9071 22.3C36.3785 21.8333 36.9451 21.6 37.6071 21.6C38.269 21.6 38.8333 21.8357 39.3 22.3071C39.7667 22.7784 40 23.3451 40 24.0071C40 24.669 39.7643 25.2333 39.2929 25.7C38.8215 26.1666 38.2549 26.4 37.5929 26.4Z" fill="#667085"/>
</svg>
