<svg width="48" height="48" viewBox="0 0 48 48" fill="none" xmlns="http://www.w3.org/2000/svg">
<path d="M9 39H11.2L33.35 16.85L31.15 14.65L9 36.8V39ZM39.7 14.7L33.3 8.29998L35.4 6.19998C35.9667 5.63331 36.6667 5.34998 37.5 5.34998C38.3333 5.34998 39.0333 5.63331 39.6 6.19998L41.8 8.39998C42.3667 8.96664 42.65 9.66664 42.65 10.5C42.65 11.3333 42.3667 12.0333 41.8 12.6L39.7 14.7ZM37.6 16.8L12.4 42H6V35.6L31.2 10.4L37.6 16.8ZM32.25 15.75L31.15 14.65L33.35 16.85L32.25 15.75Z" fill="#667085"/>
</svg>
