<svg width="48" height="48" viewBox="0 0 48 48" fill="none" xmlns="http://www.w3.org/2000/svg">
<path d="M24 40C19.5667 40 15.7917 38.4417 12.675 35.325C9.55833 32.2083 8 28.4333 8 24C8 19.5667 9.55833 15.7917 12.675 12.675C15.7917 9.55833 19.5667 8 24 8C26.8333 8 29.3167 8.575 31.45 9.725C33.5833 10.875 35.4333 12.45 37 14.45V8H40V20.7H27.3V17.7H35.7C34.4333 15.7 32.8167 14.0833 30.85 12.85C28.8833 11.6167 26.6 11 24 11C20.3667 11 17.2917 12.2583 14.775 14.775C12.2583 17.2917 11 20.3667 11 24C11 27.6333 12.2583 30.7083 14.775 33.225C17.2917 35.7417 20.3667 37 24 37C26.7667 37 29.3 36.2083 31.6 34.625C33.9 33.0417 35.5 30.95 36.4 28.35H39.5C38.5333 31.85 36.6167 34.6667 33.75 36.8C30.8833 38.9333 27.6333 40 24 40Z" fill="#667085"/>
</svg>
