<svg width="24" height="24" viewBox="0 0 24 24" fill="none" xmlns="http://www.w3.org/2000/svg">
<path d="M0 12C0 5.37258 5.37258 0 12 0C18.6274 0 24 5.37258 24 12C24 18.6274 18.6274 24 12 24C5.37258 24 0 18.6274 0 12Z" fill="#E6E6E6"/>
<path d="M15.5 12C16.3284 12 17 12.6716 17 13.5V14C17 15.9714 15.1405 18 12 18C8.85951 18 7 15.9714 7 14V13.5C7 12.6716 7.67157 12 8.5 12H15.5ZM15.5 13H8.5C8.22386 13 8 13.2239 8 13.5V14C8 15.4376 9.43216 17 12 17C14.5678 17 16 15.4376 16 14V13.5C16 13.2239 15.7761 13 15.5 13ZM12 5.5C13.5188 5.5 14.75 6.73122 14.75 8.25C14.75 9.76878 13.5188 11 12 11C10.4812 11 9.25 9.76878 9.25 8.25C9.25 6.73122 10.4812 5.5 12 5.5ZM12 6.5C11.0335 6.5 10.25 7.2835 10.25 8.25C10.25 9.2165 11.0335 10 12 10C12.9665 10 13.75 9.2165 13.75 8.25C13.75 7.2835 12.9665 6.5 12 6.5Z" fill="#616161"/>
</svg>
