<?xml version="1.0" encoding="utf-8"?>
<!-- Generator: Adobe Illustrator 26.3.1, SVG Export Plug-In . SVG Version: 6.00 Build 0)  -->
<svg version="1.1" id="Layer_1" xmlns="http://www.w3.org/2000/svg" xmlns:xlink="http://www.w3.org/1999/xlink" x="0px" y="0px"
   viewBox="0 0 75 75" style="enable-background:new 0 0 75 75;" xml:space="preserve">
<style type="text/css">
  .st0{fill-rule:evenodd;clip-rule:evenodd;fill:url(#handshake_00000120533523703459691090000008987813838278108073_);}
</style>
<g id="Icons">
  <g id="Icon_Partner_75">
    <g id="Icons_00000013163458512384628070000011202706081841226428_">
      <g id="Icon_Partner_75_00000024708088633722110760000017651124705385698191_">

          <linearGradient id="handshake_00000144337817784615937160000016289583607924598409_" gradientUnits="userSpaceOnUse" x1="-263.8588" y1="427.9277" x2="-265.086" y2="429.2586" gradientTransform="matrix(75 -2.450961e-05 -2.450747e-05 -74.9934 19864.2129 32166.1777)">
          <stop  offset="0" style="stop-color:#6FFE80"/>
          <stop  offset="0.3726" style="stop-color:#43CE58"/>
          <stop  offset="1" style="stop-color:#425FCF"/>
        </linearGradient>

          <path id="handshake" style="fill-rule:evenodd;clip-rule:evenodd;fill:url(#handshake_00000144337817784615937160000016289583607924598409_);" d="
          M59.3,50c1.9,1.9,1.9,5.1,0,7.1c-0.6,0.6-1.4,1.1-2.2,1.3l0.5,0.5c1.9,1.9,1.9,5.1,0,7.1c-1.5,1.5-3.8,1.9-5.7,1
          c-0.2,1-0.7,1.9-1.4,2.6c-1.5,1.5-3.9,1.9-5.7,1c-0.2,1-0.7,1.9-1.4,2.6c-1,1-2.3,1.5-3.5,1.5c-1.3,0-2.6-0.5-3.5-1.5L15,51.7
          c-3.8-3.8-4.6-8.5-5.3-12.3c-0.5-2.7-0.9-5.1-2.2-6.5c-0.5-0.5-0.5-1.3,0-1.8c0.5-0.5,1.3-0.5,1.8,0c1.9,1.9,2.4,4.8,2.9,7.8
          c0.6,3.6,1.3,7.7,4.6,10.9L38,71.2c1,1,2.6,1,3.5,0c0.5-0.5,0.7-1.1,0.7-1.8c0-0.7-0.3-1.3-0.7-1.8L30.1,56.2
          c-0.5-0.5-0.5-1.3,0-1.8c0.5-0.5,1.3-0.5,1.8,0l11.5,11.5h0l1.8,1.8c0.9,0.9,2.6,0.9,3.5,0c1-1,1-2.6,0-3.5L34.5,50
          c-0.5-0.5-0.5-1.3,0-1.8c0.5-0.5,1.3-0.5,1.8,0l15.9,15.9c1,1,2.6,1,3.5,0c1-1,1-2.6,0-3.5L38.9,43.8c-0.5-0.5-0.5-1.3,0-1.8
          c0.5-0.5,1.3-0.5,1.8,0L54,55.3c1,1,2.6,1,3.5,0c1-1,1-2.6,0-3.5L44.2,38.5c-0.5-0.5-0.5-1.3,0-1.8c0.5-0.5,1.3-0.5,1.8,0
          L59.3,50L59.3,50z M66.3,26.2c-2,2-2.7,5.3-3.4,8.5c-0.6,2.8-1.2,5.8-2.7,7.3l-1.8,1.8c-0.5,0.5-0.5,1.3,0,1.8
          c0.2,0.2,0.6,0.4,0.9,0.4c0.3,0,0.6-0.1,0.9-0.4l1.8-1.8c2-2,2.7-5.3,3.4-8.5c0.6-2.8,1.2-5.8,2.7-7.3c0.5-0.5,0.5-1.3,0-1.8
          S66.8,25.7,66.3,26.2L66.3,26.2z M19.6,34.1c0,0.7,0.3,1.3,0.7,1.8l0.9,0.9c1.2,1.2,2.7,1.8,4.4,1.8s3.2-0.6,4.4-1.8l6.2-6.2
          c2.5,2.1,5.5,3.2,8.8,3.2h0c3.7,0,7.1-1.4,9.7-4c0.5-0.5,0.5-1.3,0-1.8c-0.5-0.5-1.3-0.5-1.8,0c-2.1,2.1-5,3.3-8,3.3h0
          c-3,0-5.8-1.2-8-3.3c-0.5-0.5-1.3-0.5-1.8,0L28.3,35c-1.4,1.4-3.9,1.4-5.3,0l-0.9-0.9l15-15c1.4-1.4,2.7-1.4,4.4-1.4
          c1.8,0,4.1,0,6.2-2.1l3.5-3.5c0.5-0.5,0.5-1.3,0-1.8c-0.5-0.5-1.3-0.5-1.8,0L46,13.7c-1.4,1.4-2.7,1.4-4.4,1.4
          c-1.8,0-4.1,0-6.2,2.1l-15,15C19.9,32.8,19.6,33.4,19.6,34.1L19.6,34.1z M23,17.3l3.5,3.5c0.2,0.2,0.6,0.4,0.9,0.4
          c0.3,0,0.6-0.1,0.9-0.4c0.5-0.5,0.5-1.3,0-1.8l-3.5-3.5c-0.5-0.5-1.3-0.5-1.8,0C22.5,16,22.5,16.8,23,17.3L23,17.3z M21.6,11.4
          l-7.5-7.5c-0.5-0.5-1.3-0.5-1.8,0s-0.5,1.3,0,1.8l6.6,6.6L2.1,29.1c-0.5,0.5-0.5,1.3,0,1.8c0.2,0.2,0.6,0.4,0.9,0.4
          s0.6-0.1,0.9-0.4l17.7-17.7C22.1,12.6,22.1,11.9,21.6,11.4L21.6,11.4z M72.9,24.8L55.3,7.3l4.1-4.1c0.5-0.5,0.5-1.3,0-1.8
          s-1.3-0.5-1.8,0l-5,5c-0.5,0.5-0.5,1.3,0,1.8l18.4,18.4c0.2,0.2,0.6,0.4,0.9,0.4c0.3,0,0.6-0.1,0.9-0.4
          C73.4,26.1,73.4,25.3,72.9,24.8L72.9,24.8z M30.4,71.9c-0.7,0.4-1.9,0.4-3-0.7c-1.1-1.1-1.1-2.3-0.7-2.9
          c0.3-0.5,0.2-1.2-0.3-1.6c-0.5-0.4-1.2-0.4-1.7,0.1c-1,1-2.6,1-3.5,0c-1-1-1-2.6,0-3.5c0.2-0.2,0.4-0.6,0.4-0.9
          s-0.1-0.6-0.4-0.9c-0.5-0.5-1.3-0.5-1.8,0l-0.9,0.9c-1,1-2.6,1-3.5,0c-1-1-1-2.6,0-3.5l0.9-0.9c0.4-0.4,0.5-1.1,0.1-1.6
          c-0.4-0.5-1.1-0.6-1.6-0.3c-0.7,0.4-1.9,0.3-2.9-0.7c-1.1-1.1-1.1-2.3-0.7-2.8c0.4-0.6,0.2-1.3-0.3-1.7
          c-0.6-0.4-1.3-0.2-1.7,0.3c-1,1.5-1,4,1,6c0.8,0.8,1.7,1.3,2.5,1.5c-0.3,0.6-0.4,1.3-0.4,2c0,1.3,0.5,2.6,1.5,3.5
          c1.3,1.3,3.1,1.7,4.7,1.3c0.1,1.1,0.6,2.2,1.4,3.1c1.2,1.2,3,1.7,4.6,1.4c0.2,1,0.7,2.1,1.6,3.1c1.2,1.2,2.5,1.6,3.7,1.6
          c0.8,0,1.5-0.2,2.1-0.5c0.6-0.3,0.8-1.1,0.5-1.7C31.8,71.8,31,71.5,30.4,71.9L30.4,71.9z"/>
      </g>
    </g>
  </g>
</g>
</svg>
