<?xml version="1.0" encoding="UTF-8"?>
<svg width="38px" height="38px" viewBox="0 0 38 38" version="1.1" xmlns="http://www.w3.org/2000/svg" xmlns:xlink="http://www.w3.org/1999/xlink">
    <!-- Generator: Sketch 44.1 (41455) - http://www.bohemiancoding.com/sketch -->
    <title>robot</title>
    <desc>Created with Sketch.</desc>
    <defs>
        <linearGradient x1="100%" y1="100%" x2="-22.8515625%" y2="-33.2356771%" id="linearGradient-1">
            <stop stop-color="#6FFF80" offset="0%"></stop>
            <stop stop-color="#43CE57" offset="37.2587344%"></stop>
            <stop stop-color="#425FD0" offset="100%"></stop>
        </linearGradient>
    </defs>
    <g id="Mainpage" stroke="none" stroke-width="1" fill="none" fill-rule="evenodd">
        <g id="Mainpage_Layout_V4_Megamenu" transform="translate(-832.000000, -3701.000000)" fill="url(#linearGradient-1)">
            <g id="Content" transform="translate(-44.000000, 1530.000000)">
                <g id="Deliver" transform="translate(62.000000, 1032.000000)">
                    <g id="Product" transform="translate(776.000000, 967.000000)">
                        <g id="Auto" transform="translate(37.420728, 172.000000)">
                            <path d="M32.973961,22.1666667 L32.973961,27.2333333 C32.973961,28.9794333 31.5766823,30.4 29.8592069,30.4 L8.67887904,30.4 C6.96140363,30.4 5.56412494,28.9794333 5.56412494,27.2333333 L5.56412494,22.1666667 C5.56412494,21.8170667 5.84258395,21.5333333 6.18707576,21.5333333 C6.53156756,21.5333333 6.81002658,21.8170667 6.81002658,22.1666667 L6.81002658,27.2333333 C6.81002658,28.2808667 7.64851838,29.1333333 8.67887904,29.1333333 L29.8592069,29.1333333 C30.8895676,29.1333333 31.7280594,28.2808667 31.7280594,27.2333333 L31.7280594,22.1666667 C31.7280594,21.8170667 32.0065184,21.5333333 32.3510102,21.5333333 C32.695502,21.5333333 32.973961,21.8170667 32.973961,22.1666667 L32.973961,22.1666667 Z M37.9575676,19.6333333 C37.9575676,20.6808667 37.1190758,21.5333333 36.0887151,21.5333333 C35.2776331,21.5333333 34.5930102,21.0026 34.3351085,20.2666667 L32.3510102,20.2666667 C32.0065184,20.2666667 31.7280594,19.9829333 31.7280594,19.6333333 L31.7280594,13.3 C31.7280594,12.2524667 30.8895676,11.4 29.8592069,11.4 L16.1542889,11.4 C15.8097971,11.4 15.5313381,11.1162667 15.5313381,10.7666667 C15.5313381,10.4170667 15.8097971,10.1333333 16.1542889,10.1333333 L29.8592069,10.1333333 C31.5766823,10.1333333 32.973961,11.5539 32.973961,13.3 L32.973961,19 L34.3351085,19 C34.5930102,18.2640667 35.2776331,17.7333333 36.0887151,17.7333333 C37.1190758,17.7333333 37.9575676,18.5858 37.9575676,19.6333333 L37.9575676,19.6333333 Z M36.7116659,19.6333333 C36.7116659,19.2843667 36.432584,19 36.0887151,19 C35.7448462,19 35.4657643,19.2843667 35.4657643,19.6333333 C35.4657643,19.9823 35.7448462,20.2666667 36.0887151,20.2666667 C36.432584,20.2666667 36.7116659,19.9823 36.7116659,19.6333333 L36.7116659,19.6333333 Z M12.416584,19 C11.3862233,19 10.5477315,18.1475333 10.5477315,17.1 C10.5477315,16.0524667 11.3862233,15.2 12.416584,15.2 C13.4469446,15.2 14.2854364,16.0524667 14.2854364,17.1 C14.2854364,18.1475333 13.4469446,19 12.416584,19 L12.416584,19 Z M13.0395348,17.1 C13.0395348,16.7510333 12.7604528,16.4666667 12.416584,16.4666667 C12.0727151,16.4666667 11.7936331,16.7510333 11.7936331,17.1 C11.7936331,17.4489667 12.0727151,17.7333333 12.416584,17.7333333 C12.7604528,17.7333333 13.0395348,17.4489667 13.0395348,17.1 L13.0395348,17.1 Z M26.121502,19 C25.0911413,19 24.2526495,18.1475333 24.2526495,17.1 C24.2526495,16.0524667 25.0911413,15.2 26.121502,15.2 C27.1518626,15.2 27.9903544,16.0524667 27.9903544,17.1 C27.9903544,18.1475333 27.1518626,19 26.121502,19 L26.121502,19 Z M26.121502,17.7333333 C26.4653708,17.7333333 26.7444528,17.4489667 26.7444528,17.1 C26.7444528,16.7510333 26.4653708,16.4666667 26.121502,16.4666667 C25.7776331,16.4666667 25.4985512,16.7510333 25.4985512,17.1 C25.4985512,17.4489667 25.7776331,17.7333333 26.121502,17.7333333 L26.121502,17.7333333 Z M24.8756003,31.6666667 L13.6624856,31.6666667 C13.3179938,31.6666667 13.0395348,31.9504 13.0395348,32.3 C13.0395348,32.6496 13.3179938,32.9333333 13.6624856,32.9333333 L24.8756003,32.9333333 C25.2200921,32.9333333 25.4985512,32.6496 25.4985512,32.3 C25.4985512,31.9504 25.2200921,31.6666667 24.8756003,31.6666667 L24.8756003,31.6666667 Z M23.6296987,34.2 L14.9083872,34.2 C14.5638954,34.2 14.2854364,34.4837333 14.2854364,34.8333333 C14.2854364,35.1829333 14.5638954,35.4666667 14.9083872,35.4666667 L23.6296987,35.4666667 C23.9741905,35.4666667 24.2526495,35.1829333 24.2526495,34.8333333 C24.2526495,34.4837333 23.9741905,34.2 23.6296987,34.2 L23.6296987,34.2 Z M23.6296987,36.7333333 L14.9083872,36.7333333 C14.5638954,36.7333333 14.2854364,37.0170667 14.2854364,37.3666667 C14.2854364,37.7162667 14.5638954,38 14.9083872,38 L23.6296987,38 C23.9741905,38 24.2526495,37.7162667 24.2526495,37.3666667 C24.2526495,37.0170667 23.9741905,36.7333333 23.6296987,36.7333333 L23.6296987,36.7333333 Z M24.8756003,22.8 C25.2200921,22.8 25.4985512,23.0837333 25.4985512,23.4333333 L25.4985512,25.9666667 C25.4985512,26.3162667 25.2200921,26.6 24.8756003,26.6 L13.6624856,26.6 C13.3179938,26.6 13.0395348,26.3162667 13.0395348,25.9666667 L13.0395348,23.4333333 C13.0395348,23.0837333 13.3179938,22.8 13.6624856,22.8 L24.8756003,22.8 L24.8756003,22.8 Z M18.0231413,25.3333333 L20.5149446,25.3333333 L20.5149446,24.0666667 L18.0231413,24.0666667 L18.0231413,25.3333333 Z M14.2854364,25.3333333 L16.7772397,25.3333333 L16.7772397,24.0666667 L14.2854364,24.0666667 L14.2854364,25.3333333 Z M21.7608462,25.3333333 L24.2526495,25.3333333 L24.2526495,24.0666667 L21.7608462,24.0666667 L21.7608462,25.3333333 Z M4.20235444,20.2666667 C3.94382985,21.0026 3.2592069,21.5333333 2.44812494,21.5333333 C1.41776428,21.5333333 0.579272478,20.6808667 0.579272478,19.6333333 C0.579272478,18.5858 1.41776428,17.7333333 2.44812494,17.7333333 C3.2592069,17.7333333 3.94382985,18.2640667 4.20235444,19 L5.56287904,19 L5.56412494,13.3 C5.56412494,11.5539 6.96140363,10.1333333 8.67887904,10.1333333 L13.0812725,10.1333333 C13.442584,7.41443333 16.0789118,5.39473333 18.6460921,5.10593333 L18.6460921,3.68283333 C17.9228462,3.42063333 17.4001905,2.7246 17.4001905,1.9 C17.4001905,0.852466667 18.2386823,0 19.269043,0 C20.2994036,0 21.1378954,0.852466667 21.1378954,1.9 C21.1378954,2.7246 20.6152397,3.42063333 19.8919938,3.68346667 L19.8919938,5.10783333 C21.7222233,5.3048 23.5057315,6.34093333 24.5610102,7.87106667 C24.7591085,8.15733333 24.690584,8.5519 24.4090102,8.7533 C24.1268135,8.95406667 23.7387151,8.88376667 23.5412397,8.59813333 C22.6061905,7.24343333 20.889961,6.33333333 19.269043,6.33333333 C16.9647479,6.33333333 14.2854364,8.27006667 14.2854364,10.7666667 C14.2854364,11.1162667 14.0069774,11.4 13.6624856,11.4 L8.67887904,11.4 C7.64851838,11.4 6.81002658,12.2524667 6.81002658,13.3 L6.81002658,19.6333333 C6.81002658,19.9829333 6.53156756,20.2666667 6.18707576,20.2666667 L4.20235444,20.2666667 L4.20235444,20.2666667 Z M18.6460921,1.9 C18.6460921,2.24896667 18.9251741,2.53333333 19.269043,2.53333333 C19.6129118,2.53333333 19.8919938,2.24896667 19.8919938,1.9 C19.8919938,1.55103333 19.6129118,1.26666667 19.269043,1.26666667 C18.9251741,1.26666667 18.6460921,1.55103333 18.6460921,1.9 L18.6460921,1.9 Z M3.07107576,19.6333333 C3.07107576,19.2843667 2.79199379,19 2.44812494,19 C2.10425608,19 1.82517412,19.2843667 1.82517412,19.6333333 C1.82517412,19.9823 2.10425608,20.2666667 2.44812494,20.2666667 C2.79199379,20.2666667 3.07107576,19.9823 3.07107576,19.6333333 L3.07107576,19.6333333 Z" id="robot"></path>
                        </g>
                    </g>
                </g>
            </g>
        </g>
    </g>
</svg>