<?xml version="1.0" encoding="UTF-8"?>
<svg width="38px" height="38px" viewBox="0 0 38 38" version="1.1" xmlns="http://www.w3.org/2000/svg" xmlns:xlink="http://www.w3.org/1999/xlink">
    <!-- Generator: Sketch 44.1 (41455) - http://www.bohemiancoding.com/sketch -->
    <title>imac copy</title>
    <desc>Created with Sketch.</desc>
    <defs>
        <linearGradient x1="100%" y1="100%" x2="-22.8515625%" y2="-33.2356771%" id="linearGradient-1">
            <stop stop-color="#6FFF80" offset="0%"></stop>
            <stop stop-color="#43CE57" offset="37.2587344%"></stop>
            <stop stop-color="#425FD0" offset="100%"></stop>
        </linearGradient>
    </defs>
    <g id="Mainpage" stroke="none" stroke-width="1" fill="none" fill-rule="evenodd">
        <g id="Mainpage_Layout_V4_Megamenu" transform="translate(-150.000000, -3059.000000)" fill="url(#linearGradient-1)">
            <g id="Content" transform="translate(-44.000000, 1530.000000)">
                <g id="Deliver" transform="translate(62.000000, 1032.000000)">
                    <g id="Solution" transform="translate(0.907344, 0.000000)">
                        <g id="Auto" transform="translate(130.982155, 497.000000)">
                            <path d="M38.110501,3.16666667 L38.110501,25.9666667 C38.110501,27.5943333 36.571501,29.1333333 34.9438344,29.1333333 L3.2771677,29.1333333 C1.64950103,29.1333333 0.11050103,27.5943333 0.11050103,25.9666667 L0.11050103,22.1666667 C0.11050103,21.8170667 0.394234363,21.5333333 0.743834363,21.5333333 L34.9438344,21.5333333 C35.2934344,21.5333333 35.5771677,21.8170667 35.5771677,22.1666667 C35.5771677,22.5162667 35.2934344,22.8 34.9438344,22.8 L1.3771677,22.8 L1.3771677,25.9666667 C1.3771677,26.8900667 2.3537677,27.8666667 3.2771677,27.8666667 L34.9438344,27.8666667 C35.8672344,27.8666667 36.8438344,26.8900667 36.8438344,25.9666667 L36.8438344,3.16666667 C36.8438344,2.24326667 35.8672344,1.26666667 34.9438344,1.26666667 L3.2771677,1.26666667 C2.3537677,1.26666667 1.3771677,2.24326667 1.3771677,3.16666667 L1.3771677,19.6333333 C1.3771677,19.9829333 1.09343436,20.2666667 0.743834363,20.2666667 C0.394234363,20.2666667 0.11050103,19.9829333 0.11050103,19.6333333 L0.11050103,3.16666667 C0.11050103,1.539 1.64950103,0 3.2771677,0 L34.9438344,0 C36.571501,0 38.110501,1.539 38.110501,3.16666667 L38.110501,3.16666667 Z M17.8438344,25.3333333 C17.8438344,26.0319 18.4119344,26.6 19.110501,26.6 C19.8090677,26.6 20.3771677,26.0319 20.3771677,25.3333333 C20.3771677,24.6347667 19.8090677,24.0666667 19.110501,24.0666667 C18.4119344,24.0666667 17.8438344,24.6347667 17.8438344,25.3333333 L17.8438344,25.3333333 Z M16.5961677,19.6333333 C16.5961677,19.2837333 16.3130677,19 15.9628344,19 L15.956501,19 C15.606901,19 15.3263344,19.2837333 15.3263344,19.6333333 C15.3263344,19.9829333 15.6132344,20.2666667 15.9628344,20.2666667 C16.3130677,20.2666667 16.5961677,19.9829333 16.5961677,19.6333333 L16.5961677,19.6333333 Z M19.129501,19.6333333 C19.129501,19.2837333 18.846401,19 18.4961677,19 L18.4898344,19 C18.1402344,19 17.8596677,19.2837333 17.8596677,19.6333333 C17.8596677,19.9829333 18.1465677,20.2666667 18.4961677,20.2666667 C18.846401,20.2666667 19.129501,19.9829333 19.129501,19.6333333 L19.129501,19.6333333 Z M21.6628344,19.6333333 C21.6628344,19.2837333 21.3797344,19 21.029501,19 L21.0231677,19 C20.6735677,19 20.393001,19.2837333 20.393001,19.6333333 C20.393001,19.9829333 20.679901,20.2666667 21.029501,20.2666667 C21.3797344,20.2666667 21.6628344,19.9829333 21.6628344,19.6333333 L21.6628344,19.6333333 Z M14.0628344,19.6333333 C14.0628344,19.2837333 13.7797344,19 13.429501,19 L13.4231677,19 C13.0735677,19 12.793001,19.2837333 12.793001,19.6333333 C12.793001,19.9829333 13.079901,20.2666667 13.429501,20.2666667 C13.7797344,20.2666667 14.0628344,19.9829333 14.0628344,19.6333333 L14.0628344,19.6333333 Z M11.529501,19.6333333 C11.529501,19.2837333 11.246401,19 10.8961677,19 L10.8898344,19 C10.5402344,19 10.2596677,19.2837333 10.2596677,19.6333333 C10.2596677,19.9829333 10.5465677,20.2666667 10.8961677,20.2666667 C11.246401,20.2666667 11.529501,19.9829333 11.529501,19.6333333 L11.529501,19.6333333 Z M27.9961677,19.6333333 C27.9961677,19.2837333 27.7130677,19 27.3628344,19 L27.356501,19 C27.006901,19 26.7263344,19.2837333 26.7263344,19.6333333 C26.7263344,19.9829333 27.0132344,20.2666667 27.3628344,20.2666667 C27.7130677,20.2666667 27.9961677,19.9829333 27.9961677,19.6333333 L27.9961677,19.6333333 Z M25.4628344,19.6333333 C25.4628344,19.2837333 25.1797344,19 24.829501,19 L24.8231677,19 C24.4735677,19 24.193001,19.2837333 24.193001,19.6333333 C24.193001,19.9829333 24.479901,20.2666667 24.829501,20.2666667 C25.1797344,20.2666667 25.4628344,19.9829333 25.4628344,19.6333333 L25.4628344,19.6333333 Z M26.0771677,36.7333333 L25.4438344,36.7333333 L25.4438344,36.1 C25.4438344,35.7504 25.160101,35.4666667 24.810501,35.4666667 C24.460901,35.4666667 24.1771677,35.7504 24.1771677,36.1 L24.1771677,36.7333333 L22.910501,36.7333333 L22.910501,36.1 C22.910501,35.7504 22.6267677,35.4666667 22.2771677,35.4666667 C21.9275677,35.4666667 21.6438344,35.7504 21.6438344,36.1 L21.6438344,36.7333333 L20.3771677,36.7333333 L20.3771677,36.1 C20.3771677,35.7504 20.0934344,35.4666667 19.7438344,35.4666667 C19.3942344,35.4666667 19.110501,35.7504 19.110501,36.1 L19.110501,36.7333333 L17.8438344,36.7333333 L17.8438344,36.1 C17.8438344,35.7504 17.560101,35.4666667 17.210501,35.4666667 C16.860901,35.4666667 16.5771677,35.7504 16.5771677,36.1 L16.5771677,36.7333333 L15.310501,36.7333333 L15.310501,36.1 C15.310501,35.7504 15.0267677,35.4666667 14.6771677,35.4666667 C14.3275677,35.4666667 14.0438344,35.7504 14.0438344,36.1 L14.0438344,36.7333333 L12.7771677,36.7333333 L12.7771677,36.1 C12.7771677,35.7504 12.4934344,35.4666667 12.1438344,35.4666667 C11.7942344,35.4666667 11.510501,35.7504 11.510501,36.1 L11.510501,36.7333333 L10.2438344,36.7333333 L10.2438344,36.1 C10.2438344,35.7504 9.96010103,35.4666667 9.61050103,35.4666667 C9.26090103,35.4666667 8.9771677,35.7504 8.9771677,36.1 L8.9771677,36.7333333 L7.71050103,36.7333333 L7.71050103,36.1 C7.71050103,35.7504 7.4267677,35.4666667 7.0771677,35.4666667 C6.7275677,35.4666667 6.44383436,35.7504 6.44383436,36.1 L6.44383436,36.7333333 L5.1771677,36.7333333 L5.1771677,36.1 C5.1771677,35.7504 4.89343436,35.4666667 4.54383436,35.4666667 C4.19423436,35.4666667 3.91050103,35.7504 3.91050103,36.1 L3.91050103,36.7333333 L3.2771677,36.7333333 C2.9275677,36.7333333 2.64383436,37.0170667 2.64383436,37.3666667 C2.64383436,37.7162667 2.9275677,38 3.2771677,38 L26.0771677,38 C26.4267677,38 26.710501,37.7162667 26.710501,37.3666667 C26.710501,37.0170667 26.4267677,36.7333333 26.0771677,36.7333333 L26.0771677,36.7333333 Z M16.5771677,33.5666667 L16.5771677,31.0333333 C16.5771677,30.6837333 16.2934344,30.4 15.9438344,30.4 C15.5942344,30.4 15.310501,30.6837333 15.310501,31.0333333 L15.310501,33.5666667 C15.310501,33.9162667 15.5942344,34.2 15.9438344,34.2 C16.2934344,34.2 16.5771677,33.9162667 16.5771677,33.5666667 L16.5771677,33.5666667 Z M22.2771677,34.2 C22.6267677,34.2 22.910501,33.9162667 22.910501,33.5666667 L22.910501,31.0333333 C22.910501,30.6837333 22.6267677,30.4 22.2771677,30.4 C21.9275677,30.4 21.6438344,30.6837333 21.6438344,31.0333333 L21.6438344,33.5666667 C21.6438344,33.9162667 21.9275677,34.2 22.2771677,34.2 L22.2771677,34.2 Z M35.5771677,36.7333333 L35.5771677,37.3666667 C35.5771677,37.7162667 35.2934344,38 34.9438344,38 L29.8771677,38 C29.5275677,38 29.2438344,37.7162667 29.2438344,37.3666667 L29.2438344,36.7333333 C29.2438344,35.3362 30.3800344,34.2 31.7771677,34.2 L33.0438344,34.2 C34.4409677,34.2 35.5771677,35.3362 35.5771677,36.7333333 L35.5771677,36.7333333 Z M34.310501,36.7333333 C34.310501,36.0347667 33.742401,35.4666667 33.0438344,35.4666667 L31.7771677,35.4666667 C31.078601,35.4666667 30.510501,36.0347667 30.510501,36.7333333 L34.310501,36.7333333 L34.310501,36.7333333 Z" id="imac-copy"></path>
                        </g>
                    </g>
                </g>
            </g>
        </g>
    </g>
</svg>