<?xml version="1.0" encoding="UTF-8"?>
<svg width="41px" height="38px" viewBox="0 0 41 38" version="1.1" xmlns="http://www.w3.org/2000/svg" xmlns:xlink="http://www.w3.org/1999/xlink">
    <!-- Generator: Sketch 44.1 (41455) - http://www.bohemiancoding.com/sketch -->
    <title>globe-share</title>
    <desc>Created with Sketch.</desc>
    <defs>
        <linearGradient x1="100%" y1="100%" x2="-22.8515625%" y2="-33.2356771%" id="linearGradient-1">
            <stop stop-color="#6FFF80" offset="0%"></stop>
            <stop stop-color="#43CE57" offset="37.2587344%"></stop>
            <stop stop-color="#425FD0" offset="100%"></stop>
        </linearGradient>
    </defs>
    <g id="Mainpage" stroke="none" stroke-width="1" fill="none" fill-rule="evenodd">
        <g id="Mainpage_Layout_V4_Megamenu" transform="translate(-831.000000, -3529.000000)" fill="url(#linearGradient-1)">
            <g id="Content" transform="translate(-44.000000, 1530.000000)">
                <g id="Deliver" transform="translate(62.000000, 1032.000000)">
                    <g id="Product" transform="translate(776.000000, 967.000000)">
                        <g id="Auto" transform="translate(36.420728, 0.000000)">
                            <path d="M10.8786296,24.4285714 L14.7525939,24.4285714 C15.675451,27.47875 17.4736653,29.6847857 18.8301296,31.0052857 C15.2113082,30.29075 12.2371296,27.7725714 10.8786296,24.4285714 L10.8786296,24.4285714 Z M18.8301296,9.709 C17.4736653,11.0295 15.675451,13.2355357 14.7525939,16.2857143 L10.8786296,16.2857143 C12.2371296,12.9417143 15.2113082,10.4235357 18.8301296,9.709 L18.8301296,9.709 Z M30.994201,16.2857143 L27.1202368,16.2857143 C26.1973796,13.2355357 24.3984868,11.0295 23.0420225,9.709 C26.6615225,10.4235357 29.6350225,12.9417143 30.994201,16.2857143 L30.994201,16.2857143 Z M23.0420225,31.0052857 C24.3984868,29.6847857 26.1973796,27.47875 27.1202368,24.4285714 L30.994201,24.4285714 C29.635701,27.7725714 26.6615225,30.29075 23.0420225,31.0052857 L23.0420225,31.0052857 Z M20.2578439,24.4285714 L20.2578439,30.4678571 C19.076451,29.3991071 17.2063082,27.3471071 16.2006653,24.4285714 L20.2578439,24.4285714 Z M20.2578439,10.2464286 L20.2578439,16.2857143 L16.2006653,16.2857143 C17.2063082,13.3671786 19.076451,11.3151786 20.2578439,10.2464286 L20.2578439,10.2464286 Z M21.6149868,16.2857143 L21.6149868,10.2464286 C22.7963796,11.3151786 24.6665225,13.3671786 25.6714868,16.2857143 L21.6149868,16.2857143 Z M21.6149868,30.4678571 L21.6149868,24.4285714 L25.6714868,24.4285714 C24.6665225,27.3471071 22.7963796,29.3991071 21.6149868,30.4678571 L21.6149868,30.4678571 Z M26.3649868,20.3571429 C26.3649868,21.32275 26.2475939,22.2245714 26.058951,23.0714286 L21.6149868,23.0714286 L21.6149868,17.6428571 L26.058951,17.6428571 C26.2475939,18.4897143 26.3649868,19.3915357 26.3649868,20.3571429 L26.3649868,20.3571429 Z M31.7935582,20.3571429 C31.7935582,21.2956071 31.6605582,22.2021786 31.435951,23.0714286 L27.460201,23.0714286 C27.626451,22.2218571 27.7221296,21.3173214 27.7221296,20.3571429 C27.7221296,19.3969643 27.626451,18.4924286 27.460201,17.6428571 L31.435951,17.6428571 C31.6605582,18.5121071 31.7935582,19.4186786 31.7935582,20.3571429 L31.7935582,20.3571429 Z M15.5078439,20.3571429 C15.5078439,19.3915357 15.6252368,18.4897143 15.8138796,17.6428571 L20.2578439,17.6428571 L20.2578439,23.0714286 L15.8138796,23.0714286 C15.6252368,22.2245714 15.5078439,21.32275 15.5078439,20.3571429 L15.5078439,20.3571429 Z M10.0792725,20.3571429 C10.0792725,19.4186786 10.2115939,18.5121071 10.436201,17.6428571 L14.4126296,17.6428571 C14.245701,18.4924286 14.150701,19.3969643 14.150701,20.3571429 C14.150701,21.3173214 14.245701,22.2218571 14.4126296,23.0714286 L10.436201,23.0714286 C10.2115939,22.2021786 10.0792725,21.2956071 10.0792725,20.3571429 L10.0792725,20.3571429 Z M20.9377725,32.5714286 C26.3982368,32.57075 31.0308439,28.9682143 32.5895225,24.016 C32.590201,24.0139643 32.5908796,24.0126071 32.5915582,24.01125 C32.9539153,22.857 33.150701,21.6294643 33.150701,20.3571429 C33.150701,19.0848214 32.9539153,17.8572857 32.5915582,16.7030357 C32.5908796,16.7016786 32.590201,16.7003214 32.5895225,16.6982857 C31.0308439,11.7460714 26.3968796,8.14285714 20.9364153,8.14285714 C15.4752725,8.14285714 10.8413082,11.7460714 9.28262962,16.6989643 L9.28195105,16.7023571 C8.91891533,17.8566071 8.72212962,19.0841429 8.72212962,20.3571429 C8.72212962,21.6301429 8.91891533,22.8576786 9.28195105,24.0119286 L9.28262962,24.0153214 C10.8413082,28.9675357 15.4745939,32.57075 20.9343796,32.5714286 L20.9350582,32.5714286 L20.9357368,32.5714286 L20.9357368,32.5714286 L20.9364153,32.5714286 L20.9370939,32.5714286 L20.9377725,32.5714286 Z M31.7935582,36.6428571 C31.0450939,36.6428571 30.4364153,36.0341786 30.4364153,35.2857143 C30.4364153,34.53725 31.0450939,33.9285714 31.7935582,33.9285714 C32.5413439,33.9285714 33.150701,34.53725 33.150701,35.2857143 C33.150701,36.0341786 32.5413439,36.6428571 31.7935582,36.6428571 L31.7935582,36.6428571 Z M31.7935582,32.5714286 C31.4142368,32.5714286 31.0539153,32.6508214 30.7261653,32.7912857 L29.597701,31.4551786 C29.3561296,31.1688214 28.927951,31.1315 28.6415939,31.3744286 C28.3545582,31.616 28.3192725,32.0441786 28.5601653,32.3305357 L29.6574153,33.6306786 C29.3004868,34.0900714 29.0792725,34.6600714 29.0792725,35.2857143 C29.0792725,36.7826429 30.2966296,38 31.7935582,38 C33.2904868,38 34.5078439,36.7826429 34.5078439,35.2857143 C34.5078439,33.7887857 33.2904868,32.5714286 31.7935582,32.5714286 L31.7935582,32.5714286 Z M10.0792725,36.6428571 C9.33080819,36.6428571 8.72212962,36.0341786 8.72212962,35.2857143 C8.72212962,34.53725 9.33080819,33.9285714 10.0792725,33.9285714 C10.8277368,33.9285714 11.4364153,34.53725 11.4364153,35.2857143 C11.4364153,36.0341786 10.8277368,36.6428571 10.0792725,36.6428571 L10.0792725,36.6428571 Z M12.3022725,31.3846071 L11.096451,32.7729643 C10.7815939,32.6453929 10.4395939,32.5714286 10.0792725,32.5714286 C8.58234391,32.5714286 7.36498676,33.7887857 7.36498676,35.2857143 C7.36498676,36.7826429 8.58234391,38 10.0792725,38 C11.5755225,38 12.7935582,36.7826429 12.7935582,35.2857143 C12.7935582,34.64175 12.5587725,34.0575 12.1828439,33.592 L13.3269153,32.2742143 C13.5725582,31.99125 13.542701,31.5623929 13.2590582,31.31675 C12.9760939,31.0711071 12.5472368,31.1009643 12.3022725,31.3846071 L12.3022725,31.3846071 Z M38.5792725,16.2857143 C37.8308082,16.2857143 37.2221296,15.6770357 37.2221296,14.9285714 C37.2221296,14.1801071 37.8308082,13.5714286 38.5792725,13.5714286 C39.3270582,13.5714286 39.9364153,14.1801071 39.9364153,14.9285714 C39.9364153,15.6770357 39.3270582,16.2857143 38.5792725,16.2857143 L38.5792725,16.2857143 Z M38.5792725,12.2142857 C37.0823439,12.2142857 35.8649868,13.4316429 35.8649868,14.9285714 C35.8649868,15.0133929 35.881951,15.0941429 35.8900939,15.1776071 L34.5885939,15.6804286 C34.238451,15.8161429 34.0647368,16.2090357 34.200451,16.5585 C34.3042725,16.8272143 34.5607725,16.9927857 34.8328796,16.9927857 C34.9143082,16.9927857 34.9970939,16.9778571 35.0778439,16.9466429 L36.3399868,16.4580714 C36.8292368,17.1726071 37.6496296,17.6428571 38.5792725,17.6428571 C40.076201,17.6428571 41.2935582,16.4255 41.2935582,14.9285714 C41.2935582,13.4316429 40.076201,12.2142857 38.5792725,12.2142857 L38.5792725,12.2142857 Z M3.29355819,16.2857143 C2.54509391,16.2857143 1.93641533,15.6770357 1.93641533,14.9285714 C1.93641533,14.1801071 2.54509391,13.5714286 3.29355819,13.5714286 C4.04202248,13.5714286 4.65070105,14.1801071 4.65070105,14.9285714 C4.65070105,15.6770357 4.04202248,16.2857143 3.29355819,16.2857143 L3.29355819,16.2857143 Z M7.71173676,16.5781786 C7.84745105,16.2287143 7.67441533,15.8358214 7.32495105,15.7001071 L5.98273676,15.1782857 C5.99020105,15.0948214 6.00784391,15.0140714 6.00784391,14.9285714 C6.00784391,13.4316429 4.78980819,12.2142857 3.29355819,12.2142857 C1.79662962,12.2142857 0.579272478,13.4316429 0.579272478,14.9285714 C0.579272478,16.4255 1.79662962,17.6428571 3.29355819,17.6428571 C4.22184391,17.6428571 5.04223676,17.1732857 5.53216533,16.4594286 L6.83366533,16.9649643 C6.91441533,16.9961786 6.99720105,17.0111071 7.07930819,17.0111071 C7.35073676,17.0111071 7.60723676,16.8468929 7.71173676,16.5781786 L7.71173676,16.5781786 Z M20.9364153,1.35714286 C21.684201,1.35714286 22.2935582,1.96582143 22.2935582,2.71428571 C22.2935582,3.46275 21.684201,4.07142857 20.9364153,4.07142857 C20.187951,4.07142857 19.5792725,3.46275 19.5792725,2.71428571 C19.5792725,1.96582143 20.187951,1.35714286 20.9364153,1.35714286 L20.9364153,1.35714286 Z M20.2578439,5.33221429 L20.2578439,6.44642857 C20.2578439,6.821 20.5618439,7.125 20.9364153,7.125 C21.3109868,7.125 21.6149868,6.821 21.6149868,6.44642857 L21.6149868,5.33221429 C22.7821296,5.02889286 23.650701,3.97507143 23.650701,2.71428571 C23.650701,1.21735714 22.4333439,0 20.9364153,0 C19.4394868,0 18.2221296,1.21735714 18.2221296,2.71428571 C18.2221296,3.97507143 19.090701,5.02889286 20.2578439,5.33221429 L20.2578439,5.33221429 Z" id="globe-share"></path>
                        </g>
                    </g>
                </g>
            </g>
        </g>
    </g>
</svg>

