<?xml version="1.0" encoding="utf-8"?>
<!-- Generator: Adobe Illustrator 25.4.1, SVG Export Plug-In . SVG Version: 6.00 Build 0)  -->
<svg version="1.1" xmlns="http://www.w3.org/2000/svg" xmlns:xlink="http://www.w3.org/1999/xlink" x="0px" y="0px"
	 viewBox="0 0 75 75" style="enable-background:new 0 0 75 75;" xml:space="preserve">
<style type="text/css">
	.st0{fill-rule:evenodd;clip-rule:evenodd;fill:url(#SVGID_1_);}
	.st1{fill:none;}
</style>
<g id="icon">
	<linearGradient id="SVGID_1_" gradientUnits="userSpaceOnUse" x1="87.5133" y1="87.5133" x2="-26.0279" y2="-26.0279">
		<stop  offset="0" style="stop-color:#6FFE80"/>
		<stop  offset="0.3726" style="stop-color:#43CE58"/>
		<stop  offset="1" style="stop-color:#425FCF"/>
	</linearGradient>
	<path class="st0" d="M75,6.2v62.5c0,3.4-2.8,6.2-6.2,6.2H6.2C2.8,75,0,72.2,0,68.8v-50c0-0.7,0.6-1.2,1.2-1.2s1.2,0.6,1.2,1.2v50
		c0,2.1,1.7,3.8,3.8,3.8h62.5c2.1,0,3.8-1.7,3.8-3.8V6.2c0-2.1-1.7-3.8-3.8-3.8H6.2c-2.1,0-3.8,1.7-3.8,3.8v6.2h66.2
		c0.7,0,1.2,0.6,1.2,1.2S69.4,15,68.8,15H1.2C0.6,15,0,14.4,0,13.8V6.2C0,2.8,2.8,0,6.2,0h62.5C72.2,0,75,2.8,75,6.2L75,6.2z
		 M7.5,7.5C7.5,8.9,8.6,10,10,10s2.5-1.1,2.5-2.5S11.4,5,10,5S7.5,6.1,7.5,7.5L7.5,7.5z M15,7.5c0,1.4,1.1,2.5,2.5,2.5
		S20,8.9,20,7.5S18.9,5,17.5,5S15,6.1,15,7.5L15,7.5z M22.5,7.5c0,1.4,1.1,2.5,2.5,2.5s2.5-1.1,2.5-2.5S26.4,5,25,5
		S22.5,6.1,22.5,7.5L22.5,7.5z M63.8,53.7H51.2V41.2c0-0.7-0.6-1.2-1.2-1.2c-8.3,0-15,6.7-15,15s6.7,15,15,15s15-6.7,15-15
		C65,54.3,64.4,53.7,63.8,53.7z M50,67.5c-6.9,0-12.5-5.6-12.5-12.5c0-6.5,4.9-11.8,11.2-12.4v13.7h13.7
		C61.8,62.6,56.5,67.5,50,67.5z M55,35c-0.7,0-1.2,0.6-1.2,1.2v15h15c0.7,0,1.2-0.6,1.2-1.2C70,41.7,63.3,35,55,35z M56.2,48.7V37.6
		c5.9,0.6,10.6,5.3,11.2,11.2H56.2z M38.7,24.9l-6.3,16.7c-0.2,0.5-0.6,0.8-1.1,0.8c-0.5,0-1-0.3-1.2-0.8l-2.5-5.9l-7.6,19.6
		c-0.2,0.5-0.7,0.8-1.2,0.8c0,0,0,0-0.1,0c-0.5,0-1-0.4-1.1-0.9L9.9,26.8l-2.4,7.3c-0.2,0.7-0.9,1-1.6,0.8c-0.7-0.2-1-0.9-0.8-1.6
		l3.8-11.2c0.2-0.5,0.7-0.9,1.2-0.9c0.6,0,1,0.4,1.2,0.9L19,51L26.3,32c0.2-0.5,0.6-0.8,1.1-0.8c0,0,0,0,0,0c0.5,0,1,0.3,1.1,0.8
		l2.5,5.9l6.4-17.1c0.2-0.5,0.7-0.8,1.2-0.8c0.5,0,1,0.3,1.2,0.8l2.9,8.5l4.9-7.5c0.2-0.4,0.7-0.6,1.1-0.6c0.4,0,0.8,0.3,1.1,0.6
		l3.9,6.9l2.7-4.4c0.2-0.4,0.6-0.6,1.1-0.6c0,0,0,0,0,0c0.4,0,0.8,0.2,1.1,0.6l2.5,4c0.4,0.6,0.2,1.4-0.4,1.7
		c-0.6,0.4-1.4,0.2-1.7-0.4l-1.4-2.3l-2.7,4.5c-0.2,0.4-0.6,0.6-1.1,0.6c-0.4,0-0.9-0.2-1.1-0.6l-4-7l-5.1,7.9
		c-0.3,0.4-0.7,0.6-1.2,0.6c-0.5-0.1-0.9-0.4-1-0.8L38.7,24.9z"/>
</g>
<g id="_x37_5px_frame">
	<rect x="0" y="0" class="st1" width="75" height="75"/>
</g>
</svg>
