<?xml version="1.0" encoding="UTF-8"?>
<svg width="49px" height="48px" viewBox="0 0 49 48" version="1.1" xmlns="http://www.w3.org/2000/svg" xmlns:xlink="http://www.w3.org/1999/xlink">
    <!-- Generator: Sketch 44.1 (41455) - http://www.bohemiancoding.com/sketch -->
    <title>web-development</title>
    <desc>Created with Sketch.</desc>
    <defs>
        <linearGradient x1="100%" y1="100%" x2="-22.8515625%" y2="-33.2356771%" id="linearGradient-1">
            <stop stop-color="#6FFF80" offset="0%"></stop>
            <stop stop-color="#43CE57" offset="37.2587344%"></stop>
            <stop stop-color="#425FD0" offset="100%"></stop>
        </linearGradient>
    </defs>
    <g id="Mainpage" stroke="none" stroke-width="1" fill="none" fill-rule="evenodd">
        <g id="Mainpage_Layout_V4_Megamenu" transform="translate(-1084.000000, -1756.000000)" fill="url(#linearGradient-1)">
            <g id="Content" transform="translate(-44.000000, 1530.000000)">
                <g id="WhatQtis" transform="translate(194.000000, 0.000000)">
                    <g id="Block3_Hover" transform="translate(726.316067, 114.000000)">
                        <path d="M214.4,115.2 C215.2816,115.2 216,115.9176 216,116.8 C216,117.6824 215.2816,118.4 214.4,118.4 C213.5176,118.4 212.8,117.6824 212.8,116.8 C212.8,115.9176 213.5176,115.2 214.4,115.2 L214.4,115.2 Z M217.6,116.8 C217.6,117.6824 218.3176,118.4 219.2,118.4 C220.0816,118.4 220.8,117.6824 220.8,116.8 C220.8,115.9176 220.0816,115.2 219.2,115.2 C218.3176,115.2 217.6,115.9176 217.6,116.8 L217.6,116.8 Z M222.4,116.8 C222.4,117.6824 223.1176,118.4 224,118.4 C224.8816,118.4 225.6,117.6824 225.6,116.8 C225.6,115.9176 224.8816,115.2 224,115.2 C223.1176,115.2 222.4,115.9176 222.4,116.8 L222.4,116.8 Z M215.2,128 L216.8,128 C217.2424,128 217.6,127.6416 217.6,127.2 C217.6,126.7584 217.2424,126.4 216.8,126.4 L215.2,126.4 C214.7576,126.4 214.4,126.7584 214.4,127.2 C214.4,127.6416 214.7576,128 215.2,128 L215.2,128 Z M215.2,131.2 L216.8,131.2 C217.2424,131.2 217.6,130.8416 217.6,130.4 C217.6,129.9584 217.2424,129.6 216.8,129.6 L215.2,129.6 C214.7576,129.6 214.4,129.9584 214.4,130.4 C214.4,130.8416 214.7576,131.2 215.2,131.2 L215.2,131.2 Z M215.2,134.4 L216.8,134.4 C217.2424,134.4 217.6,134.0416 217.6,133.6 C217.6,133.1584 217.2424,132.8 216.8,132.8 L215.2,132.8 C214.7576,132.8 214.4,133.1584 214.4,133.6 C214.4,134.0416 214.7576,134.4 215.2,134.4 L215.2,134.4 Z M215.2,137.6 L216.8,137.6 C217.2424,137.6 217.6,137.2416 217.6,136.8 C217.6,136.3584 217.2424,136 216.8,136 L215.2,136 C214.7576,136 214.4,136.3584 214.4,136.8 C214.4,137.2416 214.7576,137.6 215.2,137.6 L215.2,137.6 Z M215.2,140.8 L216.8,140.8 C217.2424,140.8 217.6,140.4416 217.6,140 C217.6,139.5584 217.2424,139.2 216.8,139.2 L215.2,139.2 C214.7576,139.2 214.4,139.5584 214.4,140 C214.4,140.4416 214.7576,140.8 215.2,140.8 L215.2,140.8 Z M215.2,144 L216.8,144 C217.2424,144 217.6,143.6416 217.6,143.2 C217.6,142.7584 217.2424,142.4 216.8,142.4 L215.2,142.4 C214.7576,142.4 214.4,142.7584 214.4,143.2 C214.4,143.6416 214.7576,144 215.2,144 L215.2,144 Z M215.2,147.2 L216.8,147.2 C217.2424,147.2 217.6,146.8416 217.6,146.4 C217.6,145.9584 217.2424,145.6 216.8,145.6 L215.2,145.6 C214.7576,145.6 214.4,145.9584 214.4,146.4 C214.4,146.8416 214.7576,147.2 215.2,147.2 L215.2,147.2 Z M215.2,150.4 L216.8,150.4 C217.2424,150.4 217.6,150.0416 217.6,149.6 C217.6,149.1584 217.2424,148.8 216.8,148.8 L215.2,148.8 C214.7576,148.8 214.4,149.1584 214.4,149.6 C214.4,150.0416 214.7576,150.4 215.2,150.4 L215.2,150.4 Z M215.2,153.6 L216.8,153.6 C217.2424,153.6 217.6,153.2416 217.6,152.8 C217.6,152.3584 217.2424,152 216.8,152 L215.2,152 C214.7576,152 214.4,152.3584 214.4,152.8 C214.4,153.2416 214.7576,153.6 215.2,153.6 L215.2,153.6 Z M242.4,128 C242.8424,128 243.2,127.6416 243.2,127.2 C243.2,126.7584 242.8424,126.4 242.4,126.4 L239.2,126.4 C238.7576,126.4 238.4,126.7584 238.4,127.2 C238.4,127.6416 238.7576,128 239.2,128 L242.4,128 L242.4,128 Z M235.2,130.4 C235.2,130.8416 235.5576,131.2 236,131.2 L244,131.2 C244.4424,131.2 244.8,130.8416 244.8,130.4 C244.8,129.9584 244.4424,129.6 244,129.6 L236,129.6 C235.5576,129.6 235.2,129.9584 235.2,130.4 L235.2,130.4 Z M220,131.2 L232.8,131.2 C233.2424,131.2 233.6,130.8416 233.6,130.4 C233.6,129.9584 233.2424,129.6 232.8,129.6 L220,129.6 C219.5576,129.6 219.2,129.9584 219.2,130.4 C219.2,130.8416 219.5576,131.2 220,131.2 L220,131.2 Z M220,128 L228,128 C228.4424,128 228.8,127.6416 228.8,127.2 C228.8,126.7584 228.4424,126.4 228,126.4 L220,126.4 C219.5576,126.4 219.2,126.7584 219.2,127.2 C219.2,127.6416 219.5576,128 220,128 L220,128 Z M236,126.4 L231.2,126.4 C230.7576,126.4 230.4,126.7584 230.4,127.2 C230.4,127.6416 230.7576,128 231.2,128 L236,128 C236.4424,128 236.8,127.6416 236.8,127.2 C236.8,126.7584 236.4424,126.4 236,126.4 L236,126.4 Z M248,133.6 C248,133.1584 247.6424,132.8 247.2,132.8 L234.4,132.8 C233.9576,132.8 233.6,133.1584 233.6,133.6 C233.6,134.0416 233.9576,134.4 234.4,134.4 L247.2,134.4 C247.6424,134.4 248,134.0416 248,133.6 L248,133.6 Z M242.4,137.6 C242.8424,137.6 243.2,137.2416 243.2,136.8 C243.2,136.3584 242.8424,136 242.4,136 L236,136 C235.5576,136 235.2,136.3584 235.2,136.8 C235.2,137.2416 235.5576,137.6 236,137.6 L242.4,137.6 L242.4,137.6 Z M220,137.6 L232.8,137.6 C233.2424,137.6 233.6,137.2416 233.6,136.8 C233.6,136.3584 233.2424,136 232.8,136 L220,136 C219.5576,136 219.2,136.3584 219.2,136.8 C219.2,137.2416 219.5576,137.6 220,137.6 L220,137.6 Z M220,134.4 L223.2,134.4 C223.6424,134.4 224,134.0416 224,133.6 C224,133.1584 223.6424,132.8 223.2,132.8 L220,132.8 C219.5576,132.8 219.2,133.1584 219.2,133.6 C219.2,134.0416 219.5576,134.4 220,134.4 L220,134.4 Z M226.4,132.8 C225.9576,132.8 225.6,133.1584 225.6,133.6 C225.6,134.0416 225.9576,134.4 226.4,134.4 L231.2,134.4 C231.6424,134.4 232,134.0416 232,133.6 C232,133.1584 231.6424,132.8 231.2,132.8 L226.4,132.8 L226.4,132.8 Z M237.6,146.4 C237.6,145.9584 237.2424,145.6 236.8,145.6 L234.4,145.6 C233.9576,145.6 233.6,145.9584 233.6,146.4 C233.6,146.8416 233.9576,147.2 234.4,147.2 L236.8,147.2 C237.2424,147.2 237.6,146.8416 237.6,146.4 L237.6,146.4 Z M220,147.2 L223.2,147.2 C223.6424,147.2 224,146.8416 224,146.4 C224,145.9584 223.6424,145.6 223.2,145.6 L220,145.6 C219.5576,145.6 219.2,145.9584 219.2,146.4 C219.2,146.8416 219.5576,147.2 220,147.2 L220,147.2 Z M231.2,145.6 L226.4,145.6 C225.9576,145.6 225.6,145.9584 225.6,146.4 C225.6,146.8416 225.9576,147.2 226.4,147.2 L231.2,147.2 C231.6424,147.2 232,146.8416 232,146.4 C232,145.9584 231.6424,145.6 231.2,145.6 L231.2,145.6 Z M220,150.4 L229.6,150.4 C230.0424,150.4 230.4,150.0416 230.4,149.6 C230.4,149.1584 230.0424,148.8 229.6,148.8 L220,148.8 C219.5576,148.8 219.2,149.1584 219.2,149.6 C219.2,150.0416 219.5576,150.4 220,150.4 L220,150.4 Z M232.8,150.4 L234.4,150.4 C234.8424,150.4 235.2,150.0416 235.2,149.6 C235.2,149.1584 234.8424,148.8 234.4,148.8 L232.8,148.8 C232.3576,148.8 232,149.1584 232,149.6 C232,150.0416 232.3576,150.4 232.8,150.4 L232.8,150.4 Z M220,153.6 L224.8,153.6 C225.2424,153.6 225.6,153.2416 225.6,152.8 C225.6,152.3584 225.2424,152 224.8,152 L220,152 C219.5576,152 219.2,152.3584 219.2,152.8 C219.2,153.2416 219.5576,153.6 220,153.6 L220,153.6 Z M227.2,152.8 C227.2,153.2416 227.5576,153.6 228,153.6 L236,153.6 C236.4424,153.6 236.8,153.2416 236.8,152.8 C236.8,152.3584 236.4424,152 236,152 L228,152 C227.5576,152 227.2,152.3584 227.2,152.8 L227.2,152.8 Z M244.8,140 C244.8,139.5584 244.4424,139.2 244,139.2 L231.2,139.2 C230.7576,139.2 230.4,139.5584 230.4,140 C230.4,140.4416 230.7576,140.8 231.2,140.8 L244,140.8 C244.4424,140.8 244.8,140.4416 244.8,140 L244.8,140 Z M239.2,143.2 C239.2,142.7584 238.8424,142.4 238.4,142.4 L232.8,142.4 C232.3576,142.4 232,142.7584 232,143.2 C232,143.6416 232.3576,144 232.8,144 L238.4,144 C238.8424,144 239.2,143.6416 239.2,143.2 L239.2,143.2 Z M220,144 L229.6,144 C230.0424,144 230.4,143.6416 230.4,143.2 C230.4,142.7584 230.0424,142.4 229.6,142.4 L220,142.4 C219.5576,142.4 219.2,142.7584 219.2,143.2 C219.2,143.6416 219.5576,144 220,144 L220,144 Z M220,140.8 L228,140.8 C228.4424,140.8 228.8,140.4416 228.8,140 C228.8,139.5584 228.4424,139.2 228,139.2 L220,139.2 C219.5576,139.2 219.2,139.5584 219.2,140 C219.2,140.4416 219.5576,140.8 220,140.8 L220,140.8 Z M256,149.6 L256,152.8 C256,153.2416 255.6424,153.6 255.2,153.6 L253.9816,153.6 C253.8976,153.8384 253.8008,154.072 253.692,154.3 L254.5528,155.1608 C254.8656,155.4736 254.8656,155.98 254.5528,156.292 L252.2904,158.5544 C252.1408,158.7048 251.9376,158.7888 251.7248,158.7888 C251.5128,158.7888 251.3096,158.7048 251.1592,158.5544 L250.2976,157.6928 C250.0704,157.8008 249.8376,157.8976 249.5992,157.9816 L249.5992,159.2 C249.5992,159.6416 249.2416,160 248.7992,160 L245.5992,160 C245.1568,160 244.7992,159.6416 244.7992,159.2 L244.7992,157.9816 C244.5616,157.8976 244.3288,157.8008 244.1008,157.692 L243.24,158.5528 C242.94,158.8528 242.4088,158.8528 242.1088,158.5528 L239.8464,156.2904 C239.5336,155.9784 239.5336,155.472 239.8464,155.1592 L240.7072,154.2984 C240.5992,154.0704 240.5024,153.8376 240.4184,153.6 L239.2,153.6 C238.7576,153.6 238.4,153.2416 238.4,152.8 L238.4,149.6 C238.4,149.1584 238.7576,148.8 239.2,148.8 L240.4184,148.8 C240.5024,148.5616 240.5992,148.328 240.708,148.1 L239.8472,147.2392 C239.5344,146.9264 239.5344,146.42 239.8472,146.108 L242.1088,143.8456 C242.4088,143.5456 242.94,143.5456 243.24,143.8456 L244.1016,144.7072 C244.3288,144.5984 244.5624,144.5016 244.8008,144.4176 L244.8008,143.2 C244.8008,142.7584 245.1584,142.4 245.6008,142.4 L248.8,142.4 C249.2424,142.4 249.6,142.7584 249.6,143.2 L249.6,144.4176 C249.8384,144.5016 250.072,144.5984 250.2984,144.7064 L251.16,143.8456 C251.4728,143.5344 251.9792,143.5336 252.2912,143.8464 L254.5536,146.1088 C254.8664,146.4208 254.8664,146.9272 254.5536,147.24 L253.6928,148.1008 C253.8016,148.3288 253.8976,148.5624 253.9816,148.8 L255.2,148.8 C255.6424,148.8 256,149.1584 256,149.6 L256,149.6 Z M254.4,150.4 L253.3896,150.4 C253.0248,150.4 252.7064,150.1528 252.6152,149.7992 C252.4848,149.2928 252.2848,148.8088 252.0192,148.3608 C251.8344,148.0464 251.8848,147.6464 252.1432,147.388 L252.8568,146.6744 L251.7256,145.5432 L251.012,146.2568 C250.7528,146.5144 250.352,146.5648 250.0392,146.3792 C249.5928,146.116 249.1088,145.916 248.6,145.784 C248.2472,145.6928 248,145.3744 248,145.0096 L248,144 L246.4008,144 L246.4008,145.0096 C246.4008,145.3744 246.1536,145.6928 245.8008,145.784 C245.292,145.916 244.8072,146.116 244.36,146.38 C244.0472,146.5656 243.6472,146.5152 243.388,146.256 L242.6744,145.5424 L241.544,146.6736 L242.2568,147.3872 C242.5152,147.6456 242.5656,148.0456 242.3808,148.36 C242.1152,148.8072 241.9152,149.292 241.7848,149.7992 C241.6936,150.1528 241.3752,150.4 241.0104,150.4 L240,150.4 L240,152 L241.0104,152 C241.3752,152 241.6936,152.2472 241.7848,152.6 C241.9152,153.1064 242.1152,153.5904 242.3808,154.0384 C242.5656,154.3528 242.5152,154.7528 242.2568,155.0112 L241.5432,155.7248 L242.6744,156.856 L243.388,156.1424 C243.6472,155.884 244.048,155.8336 244.3608,156.0192 C244.8112,156.2848 245.2944,156.4848 245.7976,156.6144 C246.152,156.7048 246.3992,157.024 246.3992,157.3888 L246.3992,158.4 L247.9992,158.4 L247.9992,157.3896 C247.9992,157.0248 248.2464,156.7056 248.6,156.6152 C249.1064,156.4848 249.5904,156.284 250.0384,156.02 C250.352,155.8344 250.7536,155.8848 251.0112,156.1432 L251.7248,156.8576 L252.856,155.7264 L252.1424,155.0128 C251.8832,154.7544 251.8336,154.3536 252.0192,154.0392 C252.2848,153.5912 252.4848,153.1072 252.6152,152.6008 C252.7064,152.2472 253.0248,152 253.3896,152 L254.4,152 L254.4,150.4 L254.4,150.4 Z M249.6,151.2 C249.6,152.5232 248.5232,153.6 247.2,153.6 C245.8768,153.6 244.8,152.5232 244.8,151.2 C244.8,149.8768 245.8768,148.8 247.2,148.8 C248.5232,148.8 249.6,149.8768 249.6,151.2 L249.6,151.2 Z M248,151.2 C248,150.7592 247.6416,150.4 247.2,150.4 C246.7584,150.4 246.4,150.7592 246.4,151.2 C246.4,151.6408 246.7584,152 247.2,152 C247.6416,152 248,151.6408 248,151.2 L248,151.2 Z M239.2,158.4 L212,158.4 C210.6768,158.4 209.6,157.3232 209.6,156 L209.6,124 C209.6,123.5584 209.2424,123.2 208.8,123.2 C208.3576,123.2 208,123.5584 208,124 L208,156 C208,158.2056 209.7944,160 212,160 L239.2,160 C239.6424,160 240,159.6416 240,159.2 C240,158.7584 239.6424,158.4 239.2,158.4 L239.2,158.4 Z M252,112 L212,112 C209.7944,112 208,113.7944 208,116 L208,120.8 C208,121.2416 208.3576,121.6 208.8,121.6 L252,121.6 C252.4424,121.6 252.8,121.2416 252.8,120.8 C252.8,120.3584 252.4424,120 252,120 L209.6,120 L209.6,116 C209.6,114.6768 210.6768,113.6 212,113.6 L252,113.6 C253.3232,113.6 254.4,114.6768 254.4,116 L254.4,143.2 C254.4,143.6416 254.7576,144 255.2,144 C255.6424,144 256,143.6416 256,143.2 L256,116 C256,113.7944 254.2056,112 252,112 L252,112 Z" id="web-development"></path>
                    </g>
                </g>
            </g>
        </g>
    </g>
</svg>