<?xml version="1.0" encoding="UTF-8" standalone="no"?>
<svg
   viewBox="0 0 4875 4875"
   version="1.1"
   id="svg4"
   sodipodi:docname="macOS.svg"
   inkscape:version="1.2.2 (b0a8486541, 2022-12-01)"
   xmlns:inkscape="http://www.inkscape.org/namespaces/inkscape"
   xmlns:sodipodi="http://sodipodi.sourceforge.net/DTD/sodipodi-0.dtd"
   xmlns="http://www.w3.org/2000/svg"
   xmlns:svg="http://www.w3.org/2000/svg">
  <defs
     id="defs8" />
  <sodipodi:namedview
     id="namedview6"
     pagecolor="#ffffff"
     bordercolor="#000000"
     borderopacity="0.25"
     inkscape:showpageshadow="2"
     inkscape:pageopacity="0.0"
     inkscape:pagecheckerboard="0"
     inkscape:deskcolor="#d1d1d1"
     showgrid="false"
     inkscape:zoom="0.17866667"
     inkscape:cx="2056.9029"
     inkscape:cy="2443.097"
     inkscape:window-width="1920"
     inkscape:window-height="1080"
     inkscape:window-x="1920"
     inkscape:window-y="0"
     inkscape:window-maximized="1"
     inkscape:current-layer="svg4" />
  <path
     fill="#666"
     d="m 4217.2809,3659.1573 c -67.1033,155.0227 -146.5318,297.7206 -238.5597,428.9145 -125.4425,178.8514 -228.1514,302.6507 -307.3064,371.3978 -122.7033,112.843 -254.1713,170.6343 -394.952,173.9209 -101.0661,0 -222.9479,-28.7587 -364.8238,-87.0974 -142.3418,-58.0655 -273.1524,-86.8235 -392.7608,-86.8235 -125.4424,0 -259.9782,28.758 -403.8809,86.8235 -144.1218,58.3387 -260.2248,88.7411 -348.9927,91.7538 -135.0014,5.7518 -269.5646,-53.6831 -403.8809,-178.5773 -85.7283,-74.7731 -192.9569,-202.9541 -321.4121,-384.5447 C 902.88949,3881.0097 789.58031,3656.1447 700.81195,3399.782 605.74429,3122.8775 558.08701,2854.7371 558.08701,2595.1424 c 0,-297.3638 64.25482,-553.8363 192.95678,-768.7591 101.14827,-172.6342 235.71135,-308.8131 404.12711,-408.7836 168.4162,-99.9703 350.3899,-150.914 546.3595,-154.1734 107.2285,0 247.8447,33.1682 422.5877,98.3545 174.25,65.4052 286.1345,98.5736 335.1882,98.5736 36.6747,0 160.9663,-38.7834 371.6716,-116.1026 199.256,-71.705 367.4256,-101.3949 505.1932,-89.7 373.3149,30.1284 653.78,177.2902 840.3002,442.4178 -333.8741,202.2962 -499.0309,485.6375 -495.7444,849.1192 3.0132,283.1218 105.7221,518.7232 307.5803,705.7915 91.4803,86.8235 193.6417,153.9273 307.3064,201.5844 -24.6494,71.4857 -50.6695,139.9584 -78.3327,205.6926 z M 3361.0953,290.01478 c 0,221.90982 -81.0722,429.10615 -242.6678,620.88525 -195.0111,227.98777 -430.8867,359.72937 -686.6746,338.94127 -3.2589,-26.6223 -5.1489,-54.6418 -5.1489,-84.085 0,-213.03328 92.7396,-441.02035 257.431,-627.43123 82.222,-94.38292 186.794,-172.86107 313.606,-235.46509 126.5378,-61.66949 246.2285,-95.77377 358.7983,-101.61416 3.2866,29.66615 4.656,59.3338 4.656,88.76593 z"
     id="path2"
     style="fill:#53586b;fill-opacity:1;stroke-width:4.43719" />
</svg>
