<?xml version="1.0" encoding="UTF-8"?>
<svg width="49px" height="48px" viewBox="0 0 49 48" version="1.1" xmlns="http://www.w3.org/2000/svg" xmlns:xlink="http://www.w3.org/1999/xlink">
    <!-- Generator: Sketch 44.1 (41455) - http://www.bohemiancoding.com/sketch -->
    <title>stopwatch</title>
    <desc>Created with Sketch.</desc>
    <defs>
        <linearGradient x1="100%" y1="100%" x2="-22.8515625%" y2="-33.2356771%" id="linearGradient-1">
            <stop stop-color="#6FFF80" offset="0%"></stop>
            <stop stop-color="#43CE57" offset="37.2587344%"></stop>
            <stop stop-color="#425FD0" offset="100%"></stop>
        </linearGradient>
    </defs>
    <g id="Mainpage" stroke="none" stroke-width="1" fill="none" fill-rule="evenodd">
        <g id="Mainpage_Layout_V4_Megamenu" transform="translate(-695.000000, -1755.000000)" fill="url(#linearGradient-1)">
            <g id="Content" transform="translate(-44.000000, 1530.000000)">
                <g id="WhatQtis" transform="translate(194.000000, 0.000000)">
                    <g id="Block2" transform="translate(378.657594, 178.000000)">
                        <path d="M189.4002,50.2 C177.049,50.2 167.0002,60.2488 167.0002,72.6 C167.0002,73.4096 167.0474,74.2464 167.141,75.088 C167.1898,75.5272 167.5882,75.84 168.0242,75.7952 C168.4634,75.7464 168.7802,75.3504 168.7314,74.912 C168.6442,74.128 168.6002,73.3504 168.6002,72.6 C168.6002,61.1312 177.9314,51.8 189.4002,51.8 C200.8698,51.8 210.2002,61.1312 210.2002,72.6 C210.2002,84.0688 200.8698,93.4 189.4002,93.4 C185.5434,93.4 181.7762,92.3344 178.5058,90.3192 C178.1306,90.0864 177.637,90.204 177.405,90.58 C177.173,90.956 177.2906,91.4496 177.6666,91.6808 C181.189,93.852 185.2466,95 189.4002,95 C201.7514,95 211.8002,84.9512 211.8002,72.6 C211.8002,60.2488 201.7514,50.2 189.4002,50.2 L189.4002,50.2 Z M186.2002,87.8 C186.2002,87.3584 185.8418,87 185.4002,87 L171.0002,87 C170.5586,87 170.2002,87.3584 170.2002,87.8 C170.2002,88.2416 170.5586,88.6 171.0002,88.6 L185.4002,88.6 C185.8418,88.6 186.2002,88.2416 186.2002,87.8 L186.2002,87.8 Z M181.4002,83 C181.4002,82.5584 181.0418,82.2 180.6002,82.2 L167.8002,82.2 C167.3586,82.2 167.0002,82.5584 167.0002,83 C167.0002,83.4416 167.3586,83.8 167.8002,83.8 L180.6002,83.8 C181.0418,83.8 181.4002,83.4416 181.4002,83 L181.4002,83 Z M168.6002,78.2 C168.6002,78.6416 168.9586,79 169.4002,79 L175.8002,79 C176.2418,79 176.6002,78.6416 176.6002,78.2 C176.6002,77.7584 176.2418,77.4 175.8002,77.4 L169.4002,77.4 C168.9586,77.4 168.6002,77.7584 168.6002,78.2 L168.6002,78.2 Z M189.4002,71 C188.5178,71 187.8002,71.7176 187.8002,72.6 C187.8002,73.4824 188.5178,74.2 189.4002,74.2 C190.2826,74.2 191.0002,73.4824 191.0002,72.6 C191.0002,71.7176 190.2826,71 189.4002,71 L189.4002,71 Z M176.9426,59.0304 L187.7842,69.8536 C188.2602,69.5728 188.8082,69.4 189.4002,69.4 C191.165,69.4 192.6002,70.8352 192.6002,72.6 C192.6002,74.3648 191.165,75.8 189.4002,75.8 C187.6354,75.8 186.2002,74.3648 186.2002,72.6 C186.2002,72.0088 186.3722,71.4608 186.653,70.9848 L175.8122,60.1624 C175.5002,59.8504 175.4994,59.344 175.8114,59.0312 C176.1234,58.7168 176.6298,58.7168 176.9426,59.0304 L176.9426,59.0304 Z M193.1778,89.8096 L193.385,90.5816 C193.4818,90.9384 193.805,91.1736 194.157,91.1736 C194.2258,91.1736 194.2962,91.1648 194.3658,91.1464 C194.7922,91.0312 195.0458,90.592 194.9306,90.1656 L194.7226,89.3936 C194.6082,88.9672 194.1674,88.7128 193.7426,88.8288 C193.3162,88.944 193.0626,89.3832 193.1778,89.8096 L193.1778,89.8096 Z M197.5034,88.2448 L197.9042,88.9368 C198.0522,89.1928 198.3202,89.336 198.597,89.336 C198.733,89.336 198.8714,89.3008 198.997,89.228 C199.3802,89.0072 199.5106,88.5176 199.2882,88.1352 L198.8874,87.4432 C198.6658,87.0608 198.1762,86.9304 197.7946,87.1512 C197.4122,87.3728 197.2818,87.8624 197.5034,88.2448 L197.5034,88.2448 Z M201.2754,85.6128 L201.8418,86.1784 C201.9978,86.3344 202.2026,86.4128 202.4074,86.4128 C202.6122,86.4128 202.817,86.3344 202.9738,86.1776 C203.285,85.8656 203.285,85.3584 202.973,85.0464 L202.4066,84.4808 C202.0938,84.1688 201.5866,84.168 201.2746,84.4816 C200.9626,84.7944 200.9626,85.3008 201.2754,85.6128 L201.2754,85.6128 Z M205.0386,80.7096 C204.6554,80.4888 204.1666,80.6192 203.9458,81.0024 C203.7242,81.3848 203.8554,81.8744 204.2386,82.0952 L204.9314,82.4952 C205.057,82.568 205.1946,82.6024 205.3306,82.6024 C205.6074,82.6024 205.8762,82.4592 206.0242,82.2024 C206.2458,81.8192 206.1146,81.3304 205.7314,81.1096 L205.0386,80.7096 Z M206.9634,78.1376 C207.033,78.156 207.1026,78.1656 207.1714,78.1656 C207.5242,78.1656 207.8482,77.9296 207.9434,77.572 C208.057,77.1448 207.8042,76.7064 207.3778,76.592 L206.6042,76.3848 C206.1794,76.2704 205.7386,76.524 205.6242,76.9504 C205.5106,77.3776 205.7634,77.8168 206.1898,77.9304 L206.9634,78.1376 Z M204.6018,73.4024 L207.8002,73.4024 C208.2426,73.4024 208.6002,73.044 208.6002,72.6024 C208.6002,72.1608 208.2426,71.8024 207.8002,71.8024 L204.6018,71.8024 C204.1594,71.8024 203.8018,72.1608 203.8018,72.6024 C203.8018,73.044 204.1594,73.4024 204.6018,73.4024 L204.6018,73.4024 Z M205.6258,68.2536 C205.721,68.6112 206.045,68.8472 206.3978,68.8472 C206.4666,68.8472 206.5362,68.8384 206.6058,68.8192 L207.3794,68.6128 C207.8058,68.4984 208.0586,68.06 207.945,67.6328 C207.8306,67.2064 207.3914,66.9528 206.965,67.0672 L206.1914,67.2744 C205.765,67.388 205.5122,67.8272 205.6258,68.2536 L205.6258,68.2536 Z M204.9354,62.7088 L204.2418,63.1088 C203.8586,63.3296 203.7266,63.8184 203.9482,64.2008 C204.0954,64.4584 204.365,64.6016 204.6418,64.6016 C204.777,64.6016 204.9146,64.5672 205.0402,64.4944 L205.7338,64.0944 C206.117,63.8736 206.249,63.3848 206.0274,63.0016 C205.8074,62.6192 205.3186,62.4872 204.9354,62.7088 L204.9354,62.7088 Z M201.8442,60.956 C202.049,60.956 202.2522,60.8784 202.409,60.7224 L202.9762,60.1568 C203.289,59.8448 203.289,59.3384 202.9778,59.0256 C202.6658,58.7136 202.1594,58.712 201.8466,59.024 L201.2794,59.5896 C200.9658,59.9016 200.9658,60.408 201.2778,60.7208 C201.4338,60.8776 201.6386,60.956 201.8442,60.956 L201.8442,60.956 Z M184.8434,56.4008 C184.9114,56.4008 184.981,56.392 185.0498,56.3736 C185.4762,56.2608 185.7306,55.8224 185.617,55.3952 L185.4114,54.6224 C185.2978,54.196 184.8586,53.9408 184.433,54.0552 C184.0058,54.168 183.7514,54.6064 183.8658,55.0336 L184.0706,55.8064 C184.1666,56.1648 184.4898,56.4008 184.8434,56.4008 L184.8434,56.4008 Z M180.601,58.1584 C180.7362,58.1584 180.8738,58.124 181.0002,58.0512 C181.3826,57.8304 181.5138,57.3416 181.293,56.9584 L180.893,56.2656 C180.6714,55.8832 180.1826,55.7512 179.8002,55.9728 C179.4178,56.1936 179.2866,56.6832 179.5074,57.0656 L179.9074,57.7584 C180.0554,58.0152 180.3242,58.1584 180.601,58.1584 L180.601,58.1584 Z M197.7986,58.0504 C197.9242,58.124 198.0626,58.1584 198.1986,58.1584 C198.4746,58.1584 198.7434,58.016 198.8914,57.7592 L199.2922,57.0672 C199.5146,56.6848 199.3834,56.1952 199.001,55.9744 C198.6194,55.752 198.129,55.8832 197.9082,56.2656 L197.5074,56.9576 C197.285,57.34 197.4162,57.8296 197.7986,58.0504 L197.7986,58.0504 Z M193.7474,56.3728 C193.817,56.3912 193.8866,56.4 193.9554,56.4 C194.3082,56.4 194.6314,56.1648 194.7274,55.808 L194.9354,55.0352 C195.0498,54.6088 194.797,54.1696 194.3706,54.0544 C193.9466,53.9408 193.5058,54.1928 193.3898,54.6192 L193.1826,55.392 C193.0674,55.8184 193.3202,56.2576 193.7474,56.3728 L193.7474,56.3728 Z M188.6002,87.8 L188.6002,91 C188.6002,91.4416 188.9586,91.8 189.4002,91.8 C189.8418,91.8 190.2002,91.4416 190.2002,91 L190.2002,87.8 C190.2002,87.3584 189.8418,87 189.4002,87 C188.9586,87 188.6002,87.3584 188.6002,87.8 L188.6002,87.8 Z M190.2002,57.4 L190.2002,54.2 C190.2002,53.7584 189.8418,53.4 189.4002,53.4 C188.9586,53.4 188.6002,53.7584 188.6002,54.2 L188.6002,57.4 C188.6002,57.8416 188.9586,58.2 189.4002,58.2 C189.8418,58.2 190.2002,57.8416 190.2002,57.4 L190.2002,57.4 Z M168.9314,55.8 L169.4002,56.2688 L173.069,52.6 L172.6002,52.1312 L168.9314,55.8 Z M167.2346,56.3656 C166.9218,56.0528 166.9218,55.5472 167.2346,55.2344 L172.0346,50.4344 C172.3474,50.1216 172.853,50.1216 173.1658,50.4344 L174.7658,52.0344 C175.0786,52.3472 175.0786,52.8528 174.7658,53.1656 L169.9658,57.9656 C169.8098,58.1216 169.605,58.2 169.4002,58.2 C169.1954,58.2 168.9906,58.1216 168.8346,57.9656 L167.2346,56.3656 Z M187.0002,48.6 L191.8002,48.6 C192.2426,48.6 192.6002,48.2416 192.6002,47.8 C192.6002,47.3584 192.2426,47 191.8002,47 L187.0002,47 C186.5586,47 186.2002,47.3584 186.2002,47.8 C186.2002,48.2416 186.5586,48.6 187.0002,48.6 L187.0002,48.6 Z M207.2074,55.924 L210.7658,52.3656 C211.0786,52.0528 211.0786,51.5472 210.7658,51.2344 C210.453,50.9216 209.9474,50.9216 209.6346,51.2344 L206.0762,54.7928 C205.7634,55.1056 205.7634,55.612 206.0762,55.924 C206.2322,56.0808 206.437,56.1584 206.6418,56.1584 C206.8466,56.1584 207.0506,56.0808 207.2074,55.924 L207.2074,55.924 Z M215.0002,51.8 C215.0002,54.4472 212.8474,56.6 210.2002,56.6 C209.7578,56.6 209.4002,56.2416 209.4002,55.8 C209.4002,55.3584 209.7578,55 210.2002,55 C211.965,55 213.4002,53.5648 213.4002,51.8 C213.4002,50.0352 211.965,48.6 210.2002,48.6 C208.4354,48.6 207.0002,50.0352 207.0002,51.8 C207.0002,52.2416 206.6426,52.6 206.2002,52.6 C205.7578,52.6 205.4002,52.2416 205.4002,51.8 C205.4002,49.1528 207.553,47 210.2002,47 C212.8474,47 215.0002,49.1528 215.0002,51.8 L215.0002,51.8 Z" id="stopwatch"></path>
                    </g>
                </g>
            </g>
        </g>
    </g>
</svg>