<?xml version="1.0" encoding="UTF-8"?>
<svg width="38px" height="38px" viewBox="0 0 38 38" version="1.1" xmlns="http://www.w3.org/2000/svg" xmlns:xlink="http://www.w3.org/1999/xlink">
    <!-- Generator: Sketch 44.1 (41455) - http://www.bohemiancoding.com/sketch -->
    <title>website-fix</title>
    <desc>Created with Sketch.</desc>
    <defs>
        <linearGradient x1="100%" y1="100%" x2="-22.8515625%" y2="-33.2356771%" id="linearGradient-1">
            <stop stop-color="#6FFF80" offset="0%"></stop>
            <stop stop-color="#43CE57" offset="37.2587344%"></stop>
            <stop stop-color="#425FD0" offset="100%"></stop>
        </linearGradient>
    </defs>
    <g id="Mainpage" stroke="none" stroke-width="1" fill="none" fill-rule="evenodd">
        <g id="Mainpage_Layout_V4_Megamenu" transform="translate(-794.000000, -5715.000000)" fill="url(#linearGradient-1)">
            <g id="Content" transform="translate(-44.000000, 1530.000000)">
                <g id="Support" transform="translate(277.000000, 4042.000000)">
                    <g id="1" transform="translate(560.490048, 136.000000)">
                        <path d="M19.509952,37.4 C20.2085186,37.4 20.7766186,36.8319 20.7766186,36.1333333 C20.7766186,35.4347667 20.2085186,34.8666667 19.509952,34.8666667 C18.8113853,34.8666667 18.2432853,35.4347667 18.2432853,36.1333333 C18.2432853,36.8319 18.8113853,37.4 19.509952,37.4 L19.509952,37.4 Z M19.509952,38.6666667 C18.1128186,38.6666667 16.9766186,37.5304667 16.9766186,36.1333333 C16.9766186,34.7362 18.1128186,33.6 19.509952,33.6 C20.9070853,33.6 22.0432853,34.7362 22.0432853,36.1333333 C22.0432853,37.5304667 20.9070853,38.6666667 19.509952,38.6666667 L19.509952,38.6666667 Z M19.509952,41.2 C22.3035853,41.2 24.5766186,38.9269667 24.5766186,36.1333333 C24.5766186,33.3397 22.3035853,31.0666667 19.509952,31.0666667 C16.7163186,31.0666667 14.4432853,33.3397 14.4432853,36.1333333 C14.4432853,38.9269667 16.7163186,41.2 19.509952,41.2 L19.509952,41.2 Z M19.509952,42.4666667 C16.017752,42.4666667 13.1766186,39.6255333 13.1766186,36.1333333 C13.1766186,32.6411333 16.017752,29.8 19.509952,29.8 C23.002152,29.8 25.8432853,32.6411333 25.8432853,36.1333333 C25.8432853,39.6255333 23.002152,42.4666667 19.509952,42.4666667 L19.509952,42.4666667 Z M35.3432853,7 L3.67661862,7 C1.93051862,7 0.509951956,8.42056667 0.509951956,10.1666667 L0.509951956,13.9666667 C0.509951956,14.3162667 0.793685289,14.6 1.14328529,14.6 L35.3432853,14.6 C35.6928853,14.6 35.9766186,14.3162667 35.9766186,13.9666667 C35.9766186,13.6170667 35.6928853,13.3333333 35.3432853,13.3333333 L1.77661862,13.3333333 L1.77661862,10.1666667 C1.77661862,9.11913333 2.62908529,8.26666667 3.67661862,8.26666667 L35.3432853,8.26666667 C36.3908186,8.26666667 37.2432853,9.11913333 37.2432853,10.1666667 L37.2432853,41.8333333 C37.2432853,42.9163333 36.4262853,43.7333333 35.3432853,43.7333333 L30.5932853,43.7333333 L29.1796853,41.8479 C29.766152,41.0594 30.184152,40.1296667 30.4248186,39.3715667 C31.303252,39.1828333 32.1158186,39.0086667 32.304552,38.9700333 C33.0183186,38.8231 33.4439186,38.236 33.4439186,37.3993667 C33.4432853,36.9243667 33.4432853,35.3283667 33.4439186,34.8654 C33.442652,34.0357333 33.018952,33.4492667 32.310252,33.2966333 L30.429252,32.8938333 C30.203152,32.1306667 29.8985186,31.396 29.521052,30.6999667 C30.0080853,29.9469333 30.457752,29.2521667 30.5635186,29.0919333 C30.9637853,28.4833 30.8497853,27.7676333 30.258252,27.1761 L28.466552,25.3844 C27.8788186,24.7979333 27.165052,24.6826667 26.5545186,25.0766 L24.9414186,26.1209667 C24.2453853,25.7435 23.5100853,25.4388667 22.7469186,25.2134 C22.5588186,24.3375 22.3859186,23.5274667 22.346652,23.3387333 C22.200352,22.6256 21.6126186,22.2 20.7766186,22.2 L18.2432853,22.2 C17.4129853,22.2 16.8265186,22.6237 16.6738853,23.3336667 L16.2710853,25.2140333 C15.5079186,25.4401333 14.7726186,25.7441333 14.0765853,26.1222333 C13.3241853,25.6358333 12.6294186,25.1861667 12.468552,25.0797667 C11.8611853,24.6807667 11.1448853,24.7941333 10.553352,25.3856667 L8.76165196,27.1767333 C8.17518529,27.7632 8.05991862,28.4776 8.45385196,29.0881333 L9.49821862,30.7012333 C9.12011862,31.3966333 8.81611862,32.1325667 8.59001862,32.8957333 C7.71411862,33.0838333 6.90345196,33.2573667 6.71471862,33.2966333 C6.00221862,33.4442 5.57661862,34.0313 5.57661862,34.8673 L5.57661862,37.4 C5.57661862,38.2296667 6.00031862,38.8161333 6.71028529,38.9694 L8.59508529,39.3728333 C8.93328529,40.4444333 9.53051862,41.5439 10.1727186,42.2570333 C10.4064186,42.5173333 10.8066853,42.5376 11.0669853,42.3039 C11.3272853,42.0702 11.3481853,41.6699333 11.113852,41.4096333 C10.4406186,40.6610333 9.92445196,39.4963333 9.71165196,38.6742667 C9.65148529,38.4424667 9.46528529,38.2638667 9.23095196,38.2138333 L6.97628529,37.7306 C6.93005196,37.7204667 6.84328529,37.7021 6.84328529,37.4 L6.84328529,34.8666667 C6.84328529,34.5633 6.93638529,34.5436667 6.97058529,34.5367 C7.18655196,34.4923667 8.21635196,34.2719667 9.23095196,34.0534667 C9.46528529,34.0034333 9.65148529,33.8248333 9.71101862,33.5930333 C9.94725196,32.6791333 10.308252,31.8070333 10.7838853,31.0008 C10.9054853,30.7943333 10.9004186,30.5372 10.769952,30.3358 L9.51785196,28.4003333 C9.49188529,28.3604333 9.44375196,28.2857 9.65718529,28.0722667 L11.4488853,26.2805667 C11.6623186,26.0671333 11.7421186,26.1184333 11.7725186,26.1380667 C11.9561853,26.2590333 12.8403186,26.8309333 13.711152,27.3939667 C13.912552,27.5238 14.170952,27.5301333 14.3767853,27.4079 C15.1830186,26.9322667 16.0551186,26.5712667 16.9683853,26.3350333 C17.2008186,26.2748667 17.3787853,26.0886667 17.429452,25.8543333 L17.9126853,23.5990333 C17.9228186,23.5528 17.9411853,23.4666667 18.2432853,23.4666667 L20.7766186,23.4666667 C21.0799853,23.4666667 21.0989853,23.5591333 21.1065853,23.5939667 C21.1502853,23.8099333 21.3713186,24.8397333 21.5891853,25.8543333 C21.6392186,26.0886667 21.8178186,26.2748667 22.0496186,26.3344 C22.9635186,26.5706333 23.8356186,26.9316333 24.641852,27.4066333 C24.8483186,27.5288667 25.1060853,27.5231667 25.3074853,27.3927 L27.2416853,26.1406 C27.2815853,26.1152667 27.3575853,26.0658667 27.5710186,26.2799333 L29.363352,28.0716333 C29.5774186,28.2863333 29.524852,28.3655 29.5052186,28.3959 C29.384252,28.5795667 28.812352,29.4637 28.2486853,30.3345333 C28.118852,30.5359333 28.113152,30.7930667 28.2353853,31.0001667 C28.7110186,31.8057667 29.0720186,32.6778667 29.308252,33.5911333 C29.3684186,33.8235667 29.5539853,34.0015333 29.7883186,34.0522 L32.0436186,34.5354333 C32.089852,34.5455667 32.1766186,34.5639333 32.177252,34.8654 C32.1766186,35.3271 32.1766186,36.9256333 32.177252,37.4 C32.177252,37.7027333 32.084152,37.7223667 32.0486853,37.7293333 C31.833352,37.7736667 30.803552,37.9947 29.788952,38.2125667 C29.5546186,38.2626 29.3684186,38.4412 29.3088853,38.673 C29.0523853,39.6635333 28.500752,40.7389333 27.9028853,41.4128 C27.7033853,41.6382667 27.689452,41.9726667 27.869952,42.2133333 L29.769952,44.7466667 C29.889652,44.9062667 30.0771186,45 30.2766186,45 L35.3432853,45 C37.119152,45 38.509952,43.6092 38.509952,41.8333333 L38.509952,10.1666667 C38.509952,8.42056667 37.0893853,7 35.3432853,7 L35.3432853,7 Z M23.9432853,18.4 C24.2928853,18.4 24.5766186,18.1162667 24.5766186,17.7666667 C24.5766186,17.4170667 24.2928853,17.1333333 23.9432853,17.1333333 L21.409952,17.1333333 C21.060352,17.1333333 20.7766186,17.4170667 20.7766186,17.7666667 C20.7766186,18.1162667 21.060352,18.4 21.409952,18.4 L23.9432853,18.4 Z M34.0766186,18.4 C34.4262186,18.4 34.709952,18.1162667 34.709952,17.7666667 C34.709952,17.4170667 34.4262186,17.1333333 34.0766186,17.1333333 L31.5432853,17.1333333 C31.1936853,17.1333333 30.909952,17.4170667 30.909952,17.7666667 C30.909952,18.1162667 31.1936853,18.4 31.5432853,18.4 L34.0766186,18.4 Z M29.009952,18.4 C29.359552,18.4 29.6432853,18.1162667 29.6432853,17.7666667 C29.6432853,17.4170667 29.359552,17.1333333 29.009952,17.1333333 L26.4766186,17.1333333 C26.1270186,17.1333333 25.8432853,17.4170667 25.8432853,17.7666667 C25.8432853,18.1162667 26.1270186,18.4 26.4766186,18.4 L29.009952,18.4 Z M10.009952,18.4 C10.359552,18.4 10.6432853,18.1162667 10.6432853,17.7666667 C10.6432853,17.4170667 10.359552,17.1333333 10.009952,17.1333333 L4.94328529,17.1333333 C4.59368529,17.1333333 4.30995196,17.4170667 4.30995196,17.7666667 C4.30995196,18.1162667 4.59368529,18.4 4.94328529,18.4 L10.009952,18.4 Z M11.909952,10.8 C11.909952,11.4985667 12.478052,12.0666667 13.1766186,12.0666667 C13.8751853,12.0666667 14.4432853,11.4985667 14.4432853,10.8 C14.4432853,10.1014333 13.8751853,9.53333333 13.1766186,9.53333333 C12.478052,9.53333333 11.909952,10.1014333 11.909952,10.8 L11.909952,10.8 Z M8.10995196,10.8 C8.10995196,11.4985667 8.67805196,12.0666667 9.37661862,12.0666667 C10.0751853,12.0666667 10.6432853,11.4985667 10.6432853,10.8 C10.6432853,10.1014333 10.0751853,9.53333333 9.37661862,9.53333333 C8.67805196,9.53333333 8.10995196,10.1014333 8.10995196,10.8 L8.10995196,10.8 Z M4.30995196,10.8 C4.30995196,11.4985667 4.87805196,12.0666667 5.57661862,12.0666667 C6.27518529,12.0666667 6.84328529,11.4985667 6.84328529,10.8 C6.84328529,10.1014333 6.27518529,9.53333333 5.57661862,9.53333333 C4.87805196,9.53333333 4.30995196,10.1014333 4.30995196,10.8 L4.30995196,10.8 Z M27.7432853,44.3666667 C27.7432853,44.7162667 27.459552,45 27.109952,45 L3.67661862,45 C1.90075196,45 0.509951956,43.6092 0.509951956,41.8333333 L0.509951956,16.5 C0.509951956,16.1504 0.793685289,15.8666667 1.14328529,15.8666667 C1.49288529,15.8666667 1.77661862,16.1504 1.77661862,16.5 L1.77661862,41.8333333 C1.77661862,42.9163333 2.59361862,43.7333333 3.67661862,43.7333333 L27.109952,43.7333333 C27.459552,43.7333333 27.7432853,44.0170667 27.7432853,44.3666667 L27.7432853,44.3666667 Z" id="website-fix"></path>
                    </g>
                </g>
            </g>
        </g>
    </g>
</svg>