<?xml version="1.0" encoding="UTF-8"?>
<svg width="38px" height="38px" viewBox="0 0 38 38" version="1.1" xmlns="http://www.w3.org/2000/svg" xmlns:xlink="http://www.w3.org/1999/xlink">
    <!-- Generator: Sketch 44.1 (41455) - http://www.bohemiancoding.com/sketch -->
    <title>presentation-man</title>
    <desc>Created with Sketch.</desc>
    <defs>
        <linearGradient x1="100%" y1="100%" x2="-22.8515625%" y2="-33.2356771%" id="linearGradient-1">
            <stop stop-color="#6FFF80" offset="0%"></stop>
            <stop stop-color="#43CE57" offset="37.2587344%"></stop>
            <stop stop-color="#425FD0" offset="100%"></stop>
        </linearGradient>
    </defs>
    <g id="Mainpage" stroke="none" stroke-width="1" fill="none" fill-rule="evenodd">
        <g id="Mainpage_Layout_V4_Megamenu" transform="translate(-264.000000, -5885.000000)" fill="url(#linearGradient-1)">
            <g id="Content" transform="translate(-44.000000, 1530.000000)">
                <g id="Support" transform="translate(277.000000, 4042.000000)">
                    <g id="1" transform="translate(30.774880, 308.000000)">
                        <path d="M38.2251201,6.9 L38.2251201,9.43333333 C38.2251201,9.78293333 37.9413868,10.0666667 37.5917868,10.0666667 L36.9584534,10.0666667 L36.9584534,24.6333333 C36.9584534,24.9829333 36.6747201,25.2666667 36.3251201,25.2666667 C35.9755201,25.2666667 35.6917868,24.9829333 35.6917868,24.6333333 L35.6917868,9.43333333 C35.6917868,9.08373333 35.9755201,8.8 36.3251201,8.8 L36.9584534,8.8 L36.9584534,7.53333333 L1.49178678,7.53333333 L1.49178678,8.8 L33.7917868,8.8 C34.1413868,8.8 34.4251201,9.08373333 34.4251201,9.43333333 C34.4251201,9.78293333 34.1413868,10.0666667 33.7917868,10.0666667 L0.858453443,10.0666667 C0.508853443,10.0666667 0.22512011,9.78293333 0.22512011,9.43333333 L0.22512011,6.9 C0.22512011,6.5504 0.508853443,6.26666667 0.858453443,6.26666667 L18.5917868,6.26666667 L18.5917868,5.63333333 C18.5917868,5.28373333 18.8755201,5 19.2251201,5 C19.5747201,5 19.8584534,5.28373333 19.8584534,5.63333333 L19.8584534,6.26666667 L37.5917868,6.26666667 C37.9413868,6.26666667 38.2251201,6.5504 38.2251201,6.9 L38.2251201,6.9 Z M8.45845344,15.1333333 L13.5251201,15.1333333 C13.8747201,15.1333333 14.1584534,14.8496 14.1584534,14.5 C14.1584534,14.1504 13.8747201,13.8666667 13.5251201,13.8666667 L8.45845344,13.8666667 C8.10885344,13.8666667 7.82512011,14.1504 7.82512011,14.5 C7.82512011,14.8496 8.10885344,15.1333333 8.45845344,15.1333333 L8.45845344,15.1333333 Z M8.45845344,18.9333333 L19.8584534,18.9333333 C20.2080534,18.9333333 20.4917868,18.6496 20.4917868,18.3 C20.4917868,17.9504 20.2080534,17.6666667 19.8584534,17.6666667 L8.45845344,17.6666667 C8.10885344,17.6666667 7.82512011,17.9504 7.82512011,18.3 C7.82512011,18.6496 8.10885344,18.9333333 8.45845344,18.9333333 L8.45845344,18.9333333 Z M18.5917868,15.1333333 C18.9413868,15.1333333 19.2251201,14.8496 19.2251201,14.5 C19.2251201,14.1504 18.9413868,13.8666667 18.5917868,13.8666667 L16.0584534,13.8666667 C15.7088534,13.8666667 15.4251201,14.1504 15.4251201,14.5 C15.4251201,14.8496 15.7088534,15.1333333 16.0584534,15.1333333 L18.5917868,15.1333333 L18.5917868,15.1333333 Z M8.45845344,22.7333333 L10.3584534,22.7333333 C10.7080534,22.7333333 10.9917868,22.4496 10.9917868,22.1 C10.9917868,21.7504 10.7080534,21.4666667 10.3584534,21.4666667 L8.45845344,21.4666667 C8.10885344,21.4666667 7.82512011,21.7504 7.82512011,22.1 C7.82512011,22.4496 8.10885344,22.7333333 8.45845344,22.7333333 L8.45845344,22.7333333 Z M19.8584534,21.4666667 L13.5251201,21.4666667 C13.1755201,21.4666667 12.8917868,21.7504 12.8917868,22.1 C12.8917868,22.4496 13.1755201,22.7333333 13.5251201,22.7333333 L19.8584534,22.7333333 C20.2080534,22.7333333 20.4917868,22.4496 20.4917868,22.1 C20.4917868,21.7504 20.2080534,21.4666667 19.8584534,21.4666667 L19.8584534,21.4666667 Z M31.2996201,25.2749 C30.9690201,25.2742667 30.6757868,25.4953 30.6308201,25.8221 L28.7308201,39.7478333 C28.6839534,40.0942667 28.9258868,40.4134667 29.2729534,40.4609667 C29.3020868,40.4647667 29.3305868,40.4666667 29.3597201,40.4666667 C29.6713201,40.4666667 29.9423868,40.2367667 29.9860868,39.9188333 L31.8107201,26.5472667 C33.9976201,26.6023667 35.4935534,27.0178333 36.2611534,27.7841667 C36.7304534,28.2522 36.9584534,28.8792 36.9584534,29.7 L36.9584534,39.8333333 C36.9584534,40.1829333 37.2421868,40.4666667 37.5917868,40.4666667 C37.9413868,40.4666667 38.2251201,40.1829333 38.2251201,39.8333333 L38.2251201,29.7 C38.2251201,28.5416333 37.8653868,27.5954333 37.1560534,26.888 C36.0692534,25.8024667 34.1534201,25.2749 31.2996201,25.2749 L31.2996201,25.2749 Z M25.5527534,25.8145 L27.4527534,39.7478333 C27.4996201,40.0942667 27.2570534,40.4134667 26.9106201,40.4609667 C26.5654534,40.5097333 26.2443534,40.2659 26.1974868,39.9188333 L24.3722201,26.5333333 L14.1584534,26.5333333 L14.1584534,29.0666667 L21.1251201,29.0666667 C21.4506534,29.0666667 21.7229868,29.3130333 21.7552868,29.6366667 L23.0219534,42.3033333 C23.0567868,42.6516667 22.8028201,42.962 22.4551201,42.9968333 C22.4335868,42.9987333 22.4120534,43 22.3911534,43 C22.0694201,43 21.7945534,42.7561667 21.7616201,42.43 L20.5519534,30.3333333 L12.2584534,30.3333333 C9.30648678,30.3333333 7.82512011,27.4909333 7.82512011,25.9 C7.82512011,25.5504 8.10885344,25.2666667 8.45845344,25.2666667 L24.9251201,25.2666667 C25.2417868,25.2666667 25.5096868,25.501 25.5527534,25.8145 L25.5527534,25.8145 Z M12.8917868,26.5333333 L9.20135344,26.5333333 C9.51105344,27.5688333 10.4863868,29.0666667 12.2584534,29.0666667 L12.8917868,29.0666667 L12.8917868,26.5333333 L12.8917868,26.5333333 Z M29.3584534,26.5333333 C29.3584534,25.8347667 28.7903534,25.2666667 28.0917868,25.2666667 C27.3932201,25.2666667 26.8251201,25.8347667 26.8251201,26.5333333 C26.8251201,27.0001 27.0816201,27.4041667 27.4584534,27.6239333 L27.4584534,32.2333333 C27.4584534,32.5829333 27.7421868,32.8666667 28.0917868,32.8666667 C28.4413868,32.8666667 28.7251201,32.5829333 28.7251201,32.2333333 L28.7251201,27.6239333 C29.1019534,27.4041667 29.3584534,27.0001 29.3584534,26.5333333 L29.3584534,26.5333333 Z M33.1584534,15.1333333 L33.1584534,15.3037 C33.5365534,15.5228333 33.7917868,15.9319667 33.7917868,16.4 L33.7917868,17.6666667 C33.7917868,18.1442 33.5257868,18.5615667 33.1337534,18.7769 C33.0134201,19.9941667 32.4839534,21.0657667 32.4586201,21.1164333 C31.8841868,22.2646667 31.0165201,24 28.0917868,24 C25.1670534,24 24.2993868,22.2646667 23.7255868,21.1164333 C23.6996201,21.0657667 23.1701534,19.9941667 23.0498201,18.7769 C22.6577868,18.5615667 22.3917868,18.1442 22.3917868,17.6666667 L22.3917868,16.4 C22.3917868,15.9319667 22.6470201,15.5228333 23.0251201,15.3037 L23.0251201,15.1333333 C23.0251201,13.0376333 24.7294201,11.3333333 26.8251201,11.3333333 L29.3584534,11.3333333 C31.4541534,11.3333333 33.1584534,13.0376333 33.1584534,15.1333333 L33.1584534,15.1333333 Z M32.5251201,16.4 C32.1755201,16.4 31.8917868,16.1162667 31.8917868,15.7666667 L31.8917868,15.1333333 C31.8917868,13.7362 30.7555868,12.6 29.3584534,12.6 L26.8251201,12.6 C25.4279868,12.6 24.2917868,13.7362 24.2917868,15.1333333 L24.2917868,15.7666667 C24.2917868,16.1162667 24.0080534,16.4 23.6584534,16.4 L23.6584534,17.6666667 C24.0080534,17.6666667 24.2917868,17.9504 24.2917868,18.3 C24.2917868,19.3956667 24.8529201,20.5394667 24.8586201,20.5508667 C25.5179201,21.8688333 26.0993201,22.7333333 28.0917868,22.7333333 C30.0842534,22.7333333 30.6656534,21.8688333 31.3249534,20.5502333 C31.3306534,20.5394667 31.8917868,19.3956667 31.8917868,18.3 C31.8917868,17.9504 32.1755201,17.6666667 32.5251201,17.6666667 L32.5251201,16.4 L32.5251201,16.4 Z M29.9917868,16.4 L29.3584534,16.4 C29.0088534,16.4 28.7251201,16.6837333 28.7251201,17.0333333 C28.7251201,17.3829333 29.0088534,17.6666667 29.3584534,17.6666667 L29.9917868,17.6666667 C30.3413868,17.6666667 30.6251201,17.3829333 30.6251201,17.0333333 C30.6251201,16.6837333 30.3413868,16.4 29.9917868,16.4 L29.9917868,16.4 Z M26.8251201,16.4 L26.1917868,16.4 C25.8421868,16.4 25.5584534,16.6837333 25.5584534,17.0333333 C25.5584534,17.3829333 25.8421868,17.6666667 26.1917868,17.6666667 L26.8251201,17.6666667 C27.1747201,17.6666667 27.4584534,17.3829333 27.4584534,17.0333333 C27.4584534,16.6837333 27.1747201,16.4 26.8251201,16.4 L26.8251201,16.4 Z M33.7917868,32.8666667 C33.4421868,32.8666667 33.1584534,33.1504 33.1584534,33.5 L33.1584534,42.3666667 C33.1584534,42.7162667 33.4421868,43 33.7917868,43 C34.1413868,43 34.4251201,42.7162667 34.4251201,42.3666667 L34.4251201,33.5 C34.4251201,33.1504 34.1413868,32.8666667 33.7917868,32.8666667 L33.7917868,32.8666667 Z M19.2251201,32.8666667 L4.65845344,32.8666667 C3.57545344,32.8666667 2.75845344,32.0496667 2.75845344,30.9666667 L2.75845344,11.9666667 C2.75845344,11.6170667 2.47472011,11.3333333 2.12512011,11.3333333 C1.77552011,11.3333333 1.49178678,11.6170667 1.49178678,11.9666667 L1.49178678,30.9666667 C1.49178678,32.7425333 2.88258678,34.1333333 4.65845344,34.1333333 L19.2251201,34.1333333 C19.5747201,34.1333333 19.8584534,33.8496 19.8584534,33.5 C19.8584534,33.1504 19.5747201,32.8666667 19.2251201,32.8666667 L19.2251201,32.8666667 Z" id="presentation-man"></path>
                    </g>
                </g>
            </g>
        </g>
    </g>
</svg>