<?xml version="1.0" encoding="UTF-8"?>
<svg width="38px" height="38px" viewBox="0 0 38 38" version="1.1" xmlns="http://www.w3.org/2000/svg" xmlns:xlink="http://www.w3.org/1999/xlink">
    <!-- Generator: Sketch 44.1 (41455) - http://www.bohemiancoding.com/sketch -->
    <title>design-skills</title>
    <desc>Created with Sketch.</desc>
    <defs>
        <linearGradient x1="100%" y1="100%" x2="-22.8515625%" y2="-33.2356771%" id="linearGradient-1">
            <stop stop-color="#6FFF80" offset="0%"></stop>
            <stop stop-color="#43CE57" offset="37.2587344%"></stop>
            <stop stop-color="#425FD0" offset="100%"></stop>
        </linearGradient>
    </defs>
    <g id="Mainpage" stroke="none" stroke-width="1" fill="none" fill-rule="evenodd">
        <g id="Mainpage_Layout_V4_Megamenu" transform="translate(-798.000000, -5886.000000)" fill="url(#linearGradient-1)">
            <g id="Content" transform="translate(-44.000000, 1530.000000)">
                <g id="Support" transform="translate(277.000000, 4042.000000)">
                    <g id="1" transform="translate(564.490048, 308.000000)">
                        <path d="M0.509951956,25.6333333 L0.509951956,9.16666667 C0.509951956,7.539 2.04895196,6 3.67661862,6 L7.47661862,6 C7.82621862,6 8.10995196,6.28373333 8.10995196,6.63333333 C8.10995196,6.98293333 7.82621862,7.26666667 7.47661862,7.26666667 L3.67661862,7.26666667 C2.75321862,7.26666667 1.77661862,8.24326667 1.77661862,9.16666667 L1.77661862,25.6333333 C1.77661862,25.9829333 1.49288529,26.2666667 1.14328529,26.2666667 C0.793685289,26.2666667 0.509951956,25.9829333 0.509951956,25.6333333 L0.509951956,25.6333333 Z M35.3432853,6 L29.009952,6 C28.660352,6 28.3766186,6.28373333 28.3766186,6.63333333 C28.3766186,6.98293333 28.660352,7.26666667 29.009952,7.26666667 L35.3432853,7.26666667 C36.2666853,7.26666667 37.2432853,8.24326667 37.2432853,9.16666667 L37.2432853,31.9666667 C37.2432853,32.8900667 36.2666853,33.8666667 35.3432853,33.8666667 L3.67661862,33.8666667 C2.75321862,33.8666667 1.77661862,32.8900667 1.77661862,31.9666667 L1.77661862,28.8 L35.3432853,28.8 C35.6928853,28.8 35.9766186,28.5162667 35.9766186,28.1666667 C35.9766186,27.8170667 35.6928853,27.5333333 35.3432853,27.5333333 L1.14328529,27.5333333 C0.793685289,27.5333333 0.509951956,27.8170667 0.509951956,28.1666667 L0.509951956,31.9666667 C0.509951956,33.5943333 2.04895196,35.1333333 3.67661862,35.1333333 L35.3432853,35.1333333 C36.970952,35.1333333 38.509952,33.5943333 38.509952,31.9666667 L38.509952,9.16666667 C38.509952,7.539 36.970952,6 35.3432853,6 L35.3432853,6 Z M18.2432853,31.3333333 C18.2432853,32.0319 18.8113853,32.6 19.509952,32.6 C20.2085186,32.6 20.7766186,32.0319 20.7766186,31.3333333 C20.7766186,30.6347667 20.2085186,30.0666667 19.509952,30.0666667 C18.8113853,30.0666667 18.2432853,30.6347667 18.2432853,31.3333333 L18.2432853,31.3333333 Z M26.4766186,42.7333333 L25.8432853,42.7333333 L25.8432853,42.1 C25.8432853,41.7504 25.559552,41.4666667 25.209952,41.4666667 C24.860352,41.4666667 24.5766186,41.7504 24.5766186,42.1 L24.5766186,42.7333333 L23.309952,42.7333333 L23.309952,42.1 C23.309952,41.7504 23.0262186,41.4666667 22.6766186,41.4666667 C22.3270186,41.4666667 22.0432853,41.7504 22.0432853,42.1 L22.0432853,42.7333333 L20.7766186,42.7333333 L20.7766186,42.1 C20.7766186,41.7504 20.4928853,41.4666667 20.1432853,41.4666667 C19.7936853,41.4666667 19.509952,41.7504 19.509952,42.1 L19.509952,42.7333333 L18.2432853,42.7333333 L18.2432853,42.1 C18.2432853,41.7504 17.959552,41.4666667 17.609952,41.4666667 C17.260352,41.4666667 16.9766186,41.7504 16.9766186,42.1 L16.9766186,42.7333333 L15.709952,42.7333333 L15.709952,42.1 C15.709952,41.7504 15.4262186,41.4666667 15.0766186,41.4666667 C14.7270186,41.4666667 14.4432853,41.7504 14.4432853,42.1 L14.4432853,42.7333333 L13.1766186,42.7333333 L13.1766186,42.1 C13.1766186,41.7504 12.8928853,41.4666667 12.5432853,41.4666667 C12.1936853,41.4666667 11.909952,41.7504 11.909952,42.1 L11.909952,42.7333333 L10.6432853,42.7333333 L10.6432853,42.1 C10.6432853,41.7504 10.359552,41.4666667 10.009952,41.4666667 C9.66035196,41.4666667 9.37661862,41.7504 9.37661862,42.1 L9.37661862,42.7333333 L8.10995196,42.7333333 L8.10995196,42.1 C8.10995196,41.7504 7.82621862,41.4666667 7.47661862,41.4666667 C7.12701862,41.4666667 6.84328529,41.7504 6.84328529,42.1 L6.84328529,42.7333333 L5.57661862,42.7333333 L5.57661862,42.1 C5.57661862,41.7504 5.29288529,41.4666667 4.94328529,41.4666667 C4.59368529,41.4666667 4.30995196,41.7504 4.30995196,42.1 L4.30995196,42.7333333 L3.67661862,42.7333333 C3.32701862,42.7333333 3.04328529,43.0170667 3.04328529,43.3666667 C3.04328529,43.7162667 3.32701862,44 3.67661862,44 L26.4766186,44 C26.8262186,44 27.109952,43.7162667 27.109952,43.3666667 C27.109952,43.0170667 26.8262186,42.7333333 26.4766186,42.7333333 L26.4766186,42.7333333 Z M16.9766186,39.5666667 L16.9766186,37.0333333 C16.9766186,36.6837333 16.6928853,36.4 16.3432853,36.4 C15.9936853,36.4 15.709952,36.6837333 15.709952,37.0333333 L15.709952,39.5666667 C15.709952,39.9162667 15.9936853,40.2 16.3432853,40.2 C16.6928853,40.2 16.9766186,39.9162667 16.9766186,39.5666667 L16.9766186,39.5666667 Z M22.6766186,40.2 C23.0262186,40.2 23.309952,39.9162667 23.309952,39.5666667 L23.309952,37.0333333 C23.309952,36.6837333 23.0262186,36.4 22.6766186,36.4 C22.3270186,36.4 22.0432853,36.6837333 22.0432853,37.0333333 L22.0432853,39.5666667 C22.0432853,39.9162667 22.3270186,40.2 22.6766186,40.2 L22.6766186,40.2 Z M35.9766186,42.7333333 L35.9766186,43.3666667 C35.9766186,43.7162667 35.6928853,44 35.3432853,44 L30.2766186,44 C29.9270186,44 29.6432853,43.7162667 29.6432853,43.3666667 L29.6432853,42.7333333 C29.6432853,41.3362 30.7794853,40.2 32.1766186,40.2 L33.4432853,40.2 C34.8404186,40.2 35.9766186,41.3362 35.9766186,42.7333333 L35.9766186,42.7333333 Z M34.709952,42.7333333 C34.709952,42.0347667 34.141852,41.4666667 33.4432853,41.4666667 L32.1766186,41.4666667 C31.478052,41.4666667 30.909952,42.0347667 30.909952,42.7333333 L34.709952,42.7333333 L34.709952,42.7333333 Z M22.6766186,26.2666667 C23.0262186,26.2666667 23.309952,25.9829333 23.309952,25.6333333 L23.309952,11.8817667 L25.8432853,7.82843333 L27.8674186,11.0666667 L25.209952,11.0666667 C24.860352,11.0666667 24.5766186,11.3504 24.5766186,11.7 C24.5766186,12.0496 24.860352,12.3333333 25.209952,12.3333333 L29.009952,12.3333333 C29.2404853,12.3333333 29.4520186,12.2085667 29.5641186,12.0071667 C29.6755853,11.8057667 29.669252,11.5594 29.5470186,11.3643333 L26.380352,6.29766667 C26.148552,5.92716667 25.5380186,5.92716667 25.3062186,6.29766667 L22.139552,11.3643333 C22.076852,11.4650333 22.0432853,11.5809333 22.0432853,11.7 L22.0432853,25.6333333 C22.0432853,25.9829333 22.3270186,26.2666667 22.6766186,26.2666667 L22.6766186,26.2666667 Z M10.009952,26.2666667 L13.809952,26.2666667 C14.159552,26.2666667 14.4432853,25.9829333 14.4432853,25.6333333 C14.4432853,25.2837333 14.159552,25 13.809952,25 L10.6432853,25 L10.6432853,23.7333333 L11.2766186,23.7333333 C11.6262186,23.7333333 11.909952,23.4496 11.909952,23.1 C11.909952,22.7504 11.6262186,22.4666667 11.2766186,22.4666667 L10.6432853,22.4666667 L10.6432853,21.2 L11.2766186,21.2 C11.6262186,21.2 11.909952,20.9162667 11.909952,20.5666667 C11.909952,20.2170667 11.6262186,19.9333333 11.2766186,19.9333333 L10.6432853,19.9333333 L10.6432853,18.6666667 L13.809952,18.6666667 C14.159552,18.6666667 14.4432853,18.3829333 14.4432853,18.0333333 C14.4432853,17.6837333 14.159552,17.4 13.809952,17.4 L10.6432853,17.4 L10.6432853,16.1333333 L11.2766186,16.1333333 C11.6262186,16.1333333 11.909952,15.8496 11.909952,15.5 C11.909952,15.1504 11.6262186,14.8666667 11.2766186,14.8666667 L10.6432853,14.8666667 L10.6432853,13.6 L11.2766186,13.6 C11.6262186,13.6 11.909952,13.3162667 11.909952,12.9666667 C11.909952,12.6170667 11.6262186,12.3333333 11.2766186,12.3333333 L10.6432853,12.3333333 L10.6432853,11.0666667 L13.809952,11.0666667 C14.159552,11.0666667 14.4432853,10.7829333 14.4432853,10.4333333 C14.4432853,10.0837333 14.159552,9.8 13.809952,9.8 L10.6432853,9.8 L10.6432853,7.26666667 L19.509952,7.26666667 L19.509952,25.6333333 C19.509952,25.9829333 19.7936853,26.2666667 20.1432853,26.2666667 C20.4928853,26.2666667 20.7766186,25.9829333 20.7766186,25.6333333 L20.7766186,6.63333333 C20.7766186,6.28373333 20.4928853,6 20.1432853,6 L10.009952,6 C9.66035196,6 9.37661862,6.28373333 9.37661862,6.63333333 L9.37661862,25.6333333 C9.37661862,25.9829333 9.66035196,26.2666667 10.009952,26.2666667 L10.009952,26.2666667 Z M29.009952,13.6 C28.660352,13.6 28.3766186,13.8837333 28.3766186,14.2333333 L28.3766186,25.6333333 C28.3766186,25.9829333 28.660352,26.2666667 29.009952,26.2666667 C29.359552,26.2666667 29.6432853,25.9829333 29.6432853,25.6333333 L29.6432853,14.2333333 C29.6432853,13.8837333 29.359552,13.6 29.009952,13.6 L29.009952,13.6 Z M25.209952,14.2333333 L25.209952,25.6333333 C25.209952,25.9829333 25.4936853,26.2666667 25.8432853,26.2666667 C26.1928853,26.2666667 26.4766186,25.9829333 26.4766186,25.6333333 L26.4766186,14.2333333 C26.4766186,13.8837333 26.1928853,13.6 25.8432853,13.6 C25.4936853,13.6 25.209952,13.8837333 25.209952,14.2333333 L25.209952,14.2333333 Z" id="design-skills"></path>
                    </g>
                </g>
            </g>
        </g>
    </g>
</svg>