<?xml version="1.0" standalone="no"?>
<!DOCTYPE svg PUBLIC "-//W3C//DTD SVG 1.1//EN" "http://www.w3.org/Graphics/SVG/1.1/DTD/svg11.dtd" >
<svg xmlns="http://www.w3.org/2000/svg" xmlns:xlink="http://www.w3.org/1999/xlink" version="1.1" viewBox="-10 0 1034 1024">
   <path fill="currentColor"
d="M765 327l-14 -11l-538 502l503 -533l-14 -12q-48 -26 -106 -23.5t-109 19.5q-14 4 -28.5 10t-28.5 13q-30 14 -57.5 32.5t-52.5 41.5q-55 52 -90.5 119t-52.5 140q-5 21 -9 42t-7 42q-3 26 -5.5 52.5t-4.5 53.5q-1 22 1.5 45.5t33.5 21.5h11.5h10.5q78 -2 156 -6t153 -29
q49 -16 94 -42.5t82 -62.5q27 -27 50 -60t39 -69.5t24 -75.5t5 -78q-3 -35 -12.5 -70t-33.5 -62v0zM844 160l30 30l-563 531z" />
</svg>
