<?xml version="1.0" encoding="UTF-8" standalone="no"?>
<svg
   width="1080"
   zoomAndPan="magnify"
   viewBox="0 0 810 809.999993"
   height="1080"
   preserveAspectRatio="xMidYMid meet"
   version="1.0"
   id="svg47"
   sodipodi:docname="shiboken.svg"
   inkscape:version="1.2.2 (b0a8486541, 2022-12-01)"
   xmlns:inkscape="http://www.inkscape.org/namespaces/inkscape"
   xmlns:sodipodi="http://sodipodi.sourceforge.net/DTD/sodipodi-0.dtd"
   xmlns="http://www.w3.org/2000/svg"
   xmlns:svg="http://www.w3.org/2000/svg">
  <sodipodi:namedview
     id="namedview49"
     pagecolor="#ffffff"
     bordercolor="#000000"
     borderopacity="0.25"
     inkscape:showpageshadow="2"
     inkscape:pageopacity="0.0"
     inkscape:pagecheckerboard="0"
     inkscape:deskcolor="#d1d1d1"
     showgrid="false"
     inkscape:zoom="0.80648148"
     inkscape:cx="505.28129"
     inkscape:cy="540"
     inkscape:window-width="2552"
     inkscape:window-height="1432"
     inkscape:window-x="1924"
     inkscape:window-y="4"
     inkscape:window-maximized="1"
     inkscape:current-layer="svg47" />
  <defs
     id="defs17">
    <clipPath
       id="25c649227a">
      <path
         d="M 187.234375 180.804688 L 622.011719 180.804688 L 622.011719 615.582031 L 187.234375 615.582031 Z M 187.234375 180.804688 "
         clip-rule="nonzero"
         id="path2" />
    </clipPath>
    <clipPath
       id="a7a24c818d">
      <path
         d="M 475.953125 479.28125 L 728.5625 479.28125 L 728.5625 731.886719 L 475.953125 731.886719 Z M 475.953125 479.28125 "
         clip-rule="nonzero"
         id="path5" />
    </clipPath>
    <clipPath
       id="9e94c67ce5">
      <path
         d="M 80.601562 479.28125 L 332.789062 479.28125 L 332.789062 731.886719 L 80.601562 731.886719 Z M 80.601562 479.28125 "
         clip-rule="nonzero"
         id="path8" />
    </clipPath>
    <clipPath
       id="f807adb387">
      <path
         d="M 475.953125 81.417969 L 728.5625 81.417969 L 728.5625 333.609375 L 475.953125 333.609375 Z M 475.953125 81.417969 "
         clip-rule="nonzero"
         id="path11" />
    </clipPath>
    <clipPath
       id="a7b91dab09">
      <path
         d="M 80.601562 81.417969 L 332.789062 81.417969 L 332.789062 333.609375 L 80.601562 333.609375 Z M 80.601562 81.417969 "
         clip-rule="nonzero"
         id="path14" />
    </clipPath>
  </defs>
  <path
     fill="#41cb51"
     d="M 404.621094 459.0625 C 371.058594 459.0625 343.753906 431.75 343.753906 398.195312 C 343.753906 364.628906 371.058594 337.324219 404.621094 337.324219 C 438.179688 337.324219 465.492188 364.628906 465.492188 398.195312 C 465.492188 431.75 438.179688 459.0625 404.621094 459.0625 Z M 404.621094 459.0625 "
     fill-opacity="1"
     fill-rule="nonzero"
     id="path25" />
  <g
     clip-path="url(#25c649227a)"
     id="g29">
    <path
       fill="#41cb51"
       d="M 614.714844 363.132812 L 568.308594 355.550781 C 564.375 340.4375 558.351562 325.984375 550.351562 312.4375 L 577.464844 273.804688 C 579.890625 270.34375 579.480469 265.648438 576.5 262.65625 L 539.613281 225.769531 C 536.59375 222.742188 531.828125 222.371094 528.386719 224.855469 L 490.152344 252.335938 C 476.578125 244.351562 462.109375 238.34375 447.003906 234.4375 L 438.867188 187.996094 C 438.136719 183.839844 434.519531 180.804688 430.292969 180.804688 L 378.117188 180.804688 C 373.859375 180.804688 370.222656 183.890625 369.535156 188.101562 L 361.953125 234.535156 C 347.023438 238.421875 332.691406 244.371094 319.222656 252.273438 L 280.808594 224.820312 C 277.335938 222.351562 272.617188 222.742188 269.597656 225.742188 L 232.703125 262.628906 C 229.71875 265.613281 229.304688 270.308594 231.730469 273.761719 L 258.851562 312.5 C 250.886719 325.996094 244.902344 340.386719 240.980469 355.402344 L 194.511719 363.140625 C 190.3125 363.835938 187.234375 367.464844 187.234375 371.714844 L 187.234375 423.890625 C 187.234375 428.105469 190.261719 431.714844 194.40625 432.445312 L 240.894531 440.6875 C 244.78125 455.6875 250.746094 470.0625 258.675781 483.582031 L 231.214844 521.964844 C 228.746094 525.425781 229.136719 530.164062 232.136719 533.175781 L 269.023438 570.0625 C 272 573.035156 276.695312 573.453125 280.15625 571.035156 L 318.875 543.9375 C 332.320312 551.878906 346.703125 557.871094 361.78125 561.808594 L 369.535156 608.3125 C 370.242188 612.503906 373.867188 615.582031 378.117188 615.582031 L 430.292969 615.582031 C 434.5 615.582031 438.109375 612.554688 438.847656 608.40625 L 447.101562 561.914062 C 462.292969 557.984375 476.804688 551.949219 490.394531 543.921875 L 529.074219 571.035156 C 532.535156 573.460938 537.230469 573.050781 540.210938 570.070312 L 577.082031 533.183594 C 580.097656 530.164062 580.480469 525.410156 577.984375 521.957031 L 550.480469 483.730469 C 558.464844 470.175781 564.453125 455.714844 568.359375 440.609375 L 614.8125 432.460938 C 618.976562 431.722656 622.011719 428.105469 622.011719 423.890625 L 622.011719 371.714844 C 622.011719 367.453125 618.921875 363.820312 614.714844 363.132812 Z M 404.621094 502.539062 C 347.085938 502.539062 300.277344 455.722656 300.277344 398.183594 C 300.277344 340.65625 347.085938 293.847656 404.621094 293.847656 C 462.160156 293.847656 508.96875 340.65625 508.96875 398.183594 C 508.96875 455.722656 462.160156 502.539062 404.621094 502.539062 Z M 404.621094 502.539062 "
       fill-opacity="1"
       fill-rule="nonzero"
       id="path27" />
  </g>
  <g
     clip-path="url(#a7a24c818d)"
     id="g33">
    <path
       fill="#ffd43b"
       d="M 653.035156 479.28125 C 653.035156 576.996094 573.667969 656.363281 475.953125 656.363281 L 475.953125 731.886719 C 615.484375 731.886719 728.5625 618.8125 728.5625 479.28125 Z M 653.035156 479.28125 "
       fill-opacity="1"
       fill-rule="nonzero"
       id="path31" />
  </g>
  <g
     clip-path="url(#9e94c67ce5)"
     id="g37">
    <path
       fill="#306998"
       d="M 156.125 479.28125 C 156.125 576.996094 235.492188 656.363281 333.207031 656.363281 L 333.207031 731.886719 C 193.675781 731.886719 80.601562 618.8125 80.601562 479.28125 Z M 156.125 479.28125 "
       fill-opacity="1"
       fill-rule="nonzero"
       id="path35" />
  </g>
  <g
     clip-path="url(#f807adb387)"
     id="g41">
    <path
       fill="#306998"
       d="M 653.035156 334.023438 C 653.035156 236.308594 573.667969 156.945312 475.953125 156.945312 L 475.953125 81.417969 C 615.484375 81.417969 728.5625 194.492188 728.5625 334.023438 Z M 653.035156 334.023438 "
       fill-opacity="1"
       fill-rule="nonzero"
       id="path39" />
  </g>
  <g
     clip-path="url(#a7b91dab09)"
     id="g45">
    <path
       fill="#ffd43b"
       d="M 156.125 334.023438 C 156.125 236.308594 235.492188 156.945312 333.207031 156.945312 L 333.207031 81.417969 C 193.675781 81.417969 80.601562 194.492188 80.601562 334.023438 Z M 156.125 334.023438 "
       fill-opacity="1"
       fill-rule="nonzero"
       id="path43" />
  </g>
</svg>
